<?xml version='1.0' encoding='utf-8'?>
<svg xmlns="http://www.w3.org/2000/svg" enable-background="new 0 0 800 800" version="1.1" viewBox="0 0 515.88831 499.4234"><defs>
		<linearGradient id="e" x1="533" x2="568" y1="528" y2="493" gradientTransform="matrix(.99465 0 0 1 2.3452 0)" gradientUnits="userSpaceOnUse"><stop stop-color="#784421" offset="0"/><stop stop-color="#f4e3d7" offset="1"/></linearGradient><linearGradient id="f" x1="612" x2="591" y1="531" y2="558" gradientTransform="translate(-144.3 -148.15)" gradientUnits="userSpaceOnUse"><stop stop-color="#fff" offset="0"/><stop stop-color="#fff" stop-opacity="0" offset="1"/></linearGradient><linearGradient id="g" x1="632" x2="360" y1="280" y2="406" gradientTransform="translate(-145.3 -148.15)" gradientUnits="userSpaceOnUse"><stop stop-color="#fff" offset="0"/><stop stop-color="#fff" stop-opacity="0" offset="1"/></linearGradient><linearGradient id="h" x1="533" x2="568" y1="528" y2="493" gradientUnits="userSpaceOnUse"><stop stop-color="#502d16" offset="0"/><stop stop-color="#f4e3d7" offset="1"/></linearGradient></defs>
<path d="m361.84 150.35c-13.588-21.471-32.47-44.792-62.661-70.03-97.353-81.381-195.47-105.72-266.2-48.676-0.81 0.712-1.597 1.435-2.37 2.162-52.617 49.531-20.18 133.85 29.096 188.38 50 55.333 89.176 86.751 145.85 101.7 59.319 15.647 90.25-22.563 137.56 26.201 7.717 7.954 16.056 16.987 24.604 26.528-15.131-17.655-27.923-32.201-34.265-38.543-22.652-22.652-40.484-44.821-40.484-44.821s21.206-14.218 43.376-26.749c8.899 5.491 13.688 11.517 30.354 30.583-5.922-12.896-3.437-22.205 1.703-30.147 19.788-30.212 23.658-68.825-6.567-116.59z" fill="#ffd1a1"/><path d="m367.72 376.61c38.913 45.406 93.304 111.39 93.304 111.39s-49.444-62.441-93.304-111.39z" fill="#fff" stroke="#000" stroke-linecap="round" stroke-linejoin="round" stroke-miterlimit="10"/><path d="m336.36 266.5c-22.17 12.531-43.375 26.75-43.375 26.75s17.817 22.16 40.469 44.812c6.342 6.342 19.15 20.906 34.281 38.562 43.86 48.953 93.281 111.38 93.281 111.38l53.875-43.656s-44.095-38.897-82.094-76c-2.301-2.247-4.5664-4.2016-6.7812-6.3125l72.031 72.344-0.375 0.25-74-74.312c-17.707-17.899-32.549-34.936-42.219-45.875-6.3437-7.1759-11.675-13.182-16.25-18.406l1.5 1.0625c-16.666-19.066-21.445-25.103-30.344-30.594z" fill="#803300"/><path d="m337.69 357.08c-6.396-6.53-12.497-11.482-18.412-15.221 17.223 16.014 39.611 42.582 61.42 68.372 36.561 43.233 70.503 88.688 70.503 88.688l3.234-3.594c-1e-3 -1e-3 -93.127-113.7-116.74-138.24z" fill="#2c2f38"/><path d="m423.81 359.85h-2e-3l74.248 74.529-27.22 18.637-139.76-147.72-22.119-14.236 27.354-15.679 30.388 21.712c-16.666-19.066-21.455-25.095-30.354-30.586-22.17 12.531-43.376 26.745-43.376 26.745s17.832 22.168 40.484 44.82c6.342 6.342 19.134 20.886 34.265 38.542 43.86 48.953 93.304 111.39 93.304 111.39l53.859-43.67s-44.099-38.885-82.098-75.988c-3.068-2.996-6.056-5.502-8.973-8.502z" fill="#502d16"/><path d="m367.72 376.61c-8.549-9.541-16.888-18.574-24.604-26.528-47.31-48.764-78.241-10.554-137.56-26.201-56.679-14.952-95.855-46.37-145.85-101.7-49.276-54.532-81.713-138.85-29.097-188.38-0.137 0.107-0.267 0.204-0.407 0.317-55.94 49.208-24.496 139.73 25.504 195.06 50 55.333 87.176 86.751 143.85 101.7 51.338 13.542 81.667-13.074 119.72 10.98 5.915 3.738 12.016 8.69 18.412 15.221 23.618 24.55 116.74 138.24 116.74 138.24l6.591-7.323s-54.39-65.987-93.303-111.39z" fill="#d38d5f"/><path d="m461.02 488.01-6.591 7.323-3.234 3.594s20.741-12.009 50.583-37.847c5.46-5.459 13.102-16.74 13.102-16.74l-53.86 43.67z" fill="#ad8b75"/><g transform="translate(-145.3 -148.15)">
				<path d="m503.71 435.6c-10.316-11.712-15.148-16.508-22.295-20.94-22.051 12.531-43.144 26.745-43.144 26.745 14.876 5.113 26.823 9.18 36.531 11.153 9.8152 1.996 17.345 1.853 23.294-1.52 4.1368-2.345 5.8485-6.601 5.8923-11.538 0.0109-1.264-0.0836-2.568-0.2785-3.9z" fill="url(#e)" opacity=".5"/>
			<path d="m578.08 516.5c-3.06-2.99-6.05-5.5-8.97-8.5h-2e-3l74.248 74.529-27.22 18.637-139.76-147.72-1.38-0.891c-9.761-1.974-21.771-6.04-36.728-11.153 0 0 17.832 22.168 40.484 44.82 6.342 6.342 19.134 20.886 34.265 38.542 43.86 48.953 93.304 111.39 93.304 111.39l53.859-43.67c1e-3 0-44.098-38.885-82.097-75.988z" fill="url(#h)"/></g><g transform="translate(-145.3 -148.15)">
				<path d="m512 445.24c-5.895-12.871-3.43-22.289 1.703-30.222 19.787-30.212 23.657-68.788-6.568-116.55-13.588-21.471-32.47-44.773-62.661-70.011-97.353-81.381-195.47-105.71-266.2-48.667-0.81 0.712-1.597 1.439-2.37 2.167-2e-3 1e-3 -3e-3 5e-3 -5e-3 7e-3 -0.135 0.105-0.264 0.202-0.402 0.314-55.94 49.2-24.5 139.72 25.5 195.05 50 55.334 87.176 86.752 143.85 101.7 51.338 13.542 81.667-13.074 119.72 10.98 17.223 16.014 39.611 42.582 61.42 68.372 36.561 43.233 70.503 88.688 70.503 88.688s20.741-12.009 50.583-37.847c5.46-5.459 13.102-16.74 13.102-16.74s-44.099-38.885-82.098-75.988c-3.05-2.98-6.04-5.49-8.96-8.49-16.82-17-30.93-33.19-40.11-43.58-6.52-7.38-12.15-13.75-16.69-18.94l-0.31-0.24zm1 79.51c-0.428-0.499-0.847-0.987-1.271-1.481 0.431 0.501 0.855 0.995 1.289 1.502-5e-3 -7e-3 -0.012-0.014-0.018-0.021z" fill="none" stroke="#b19474" stroke-miterlimit="10"/>
			</g><g transform="translate(-145.3 -148.15)" opacity=".5">
				<path d="m513.02 524.77c-8.55-9.54-16.89-18.58-24.6-26.53-47.32-48.76-78.25-10.56-137.56-26.2-56.68-14.95-95.86-46.37-145.86-101.71-49.28-54.53-81.71-138.84-29.1-188.37-0.137 0.107-0.267 0.204-0.407 0.317-55.93 49.2-24.49 139.72 25.51 195.05 50 55.333 87.176 86.751 143.85 101.7 51.338 13.542 81.667-13.074 119.72 10.98 5.915 3.738 12.016 8.69 18.412 15.221 23.618 24.55 116.74 138.24 116.74 138.24l6.591-7.323s-54.39-65.987-93.303-111.39zm-29.312-20.222c-6.263-6.394-12.345-11.42-18.599-15.373-11.693-7.392-23.435-10.688-38.069-10.688-7.485 0-14.982 0.824-22.92 1.698-8.632 0.949-17.558 1.931-27.247 1.931-11.058 0-21.448-1.322-31.763-4.043-57.102-15.063-94.44-47.261-143.37-101.41-16.806-18.598-30.843-40.316-40.595-62.806-10.476-24.158-15.374-48.066-14.166-69.141 0.476-8.304 1.863-16.129 4.151-23.451-4.255 15.903-4.25 33.798 0.134 53.224 7.239 32.078 26.553 67.257 52.992 96.515 47.635 52.717 86.852 86.307 146.34 102 10.428 2.751 20.91 4.088 32.045 4.088 9.853-1e-3 18.86-1.013 27.57-1.991 7.877-0.885 15.317-1.721 22.683-1.721 14.839 0 32.953 3.036 54.8 25.555 7.239 7.462 15.508 16.377 24.577 26.499 36.371 42.439 86.914 103.65 92.729 110.7l-5.236 5.817c-9.36-11.45-93.66-114.15-116.04-137.42z" fill="#28170b"/>
			</g>
<path d="m417.42 352.88c0.87296 6.0623 1.9576 12.22 3.2812 18.469 9.0405 42.676 27.111 81.469 49.281 110.22l45.906-37.219s-44.095-38.897-82.094-76c-2.301-2.247-4.5664-4.2016-6.7812-6.3125l72.031 72.344-0.375 0.25-74-74.312c-2.4792-2.5061-4.8895-4.9796-7.25-7.4375z" fill="url(#f)" opacity=".8"/><path d="m122.22 5.3638c-31.075 0.4019-59.91 10.222-85.201 30.618-0.7972 0.70078-1.5705 1.4293-2.3313 2.1448-51.787 48.749-19.37 131.71 29.128 185.38 49.211 54.46 88.762 83.905 144.55 98.621 21.648 5.7103 39.46 4.1305 55.671 2.3313l32.876-21.505c-2.3156-3.0708-4.1313-5.6415-6.447-8.7123-0.54406-0.72148-0.65153-1.3527-0.51317-2.0401 0.12142-0.60329 1.1079-1.4768 1.1079-1.4768l42.568-25.852s1.3084-0.82328 2.0227-0.74539c0.65623 0.0716 1.6669 1.0692 1.6669 1.0692l8.1217 7.0079 29.434-18.765c12.11-27.34 11.03-60.72-14.2-100.59-13.37-21.14-31.95-44.11-61.67-68.948-59.88-50.061-120.08-78.168-173.79-78.518-1.007-7e-3 -2.0127-0.0129-3.0151 0z" fill="#784421" opacity=".6"/><path d="m120.33 2.5026c-31.245 0.4041-60.235 10.276-85.66 30.781-0.80146 0.70452-1.5789 1.4369-2.3438 2.1562-52.063 49.01-19.976 132.42 28.781 186.38 49.474 54.751 88.231 85.862 144.31 100.66 21.764 5.7409 39.671 4.1526 55.969 2.3438l35.062-22.625-6.9841-9.2615c-0.54697-0.72534-0.65501-1.3599-0.51592-2.051 0.12207-0.60652 1.1138-1.4847 1.1138-1.4847l42.795-25.99s1.3154-0.82768 2.0336-0.74937c0.65973 0.072 1.6758 1.0749 1.6758 1.0749l8.1651 7.0454 29.591-18.865c12.201-27.512 11.118-61.068-14.25-101.16-13.445-21.245-32.127-44.34-62-69.313-60.21-50.338-120.73-78.595-174.72-78.947-1.0124-7e-3 -2.0235-0.013-3.0312 0z" fill="#d40000"/><path d="m236.45 37.753c-5.6514 31.768-8.75 65.955-8.75 101.59 0 69.948 11.838 134.36 31.75 185.69 0.64346-0.0697 1.2991-0.1479 1.9375-0.21875l35.062-22.625-6.9688-9.25c-0.54697-0.72534-0.67034-1.3714-0.53125-2.0625 0.12207-0.60652 1.125-1.5 1.125-1.5l42.781-25.969s1.3131-0.82831 2.0312-0.75c0.65973 0.072 1.6875 1.0625 1.6875 1.0625l8.1562 7.0625 29.594-18.875c12.201-27.512 11.118-61.068-14.25-101.16-13.445-21.245-32.127-44.34-62-69.313-20.603-17.222-41.223-31.868-61.625-43.688z" fill="url(#g)"/></svg>