<?xml version="1.0" encoding="utf-8" standalone="no"?>
<!DOCTYPE svg PUBLIC "-//W3C//DTD SVG 1.1//EN"
  "http://www.w3.org/Graphics/SVG/1.1/DTD/svg11.dtd">
<svg xmlns:xlink="http://www.w3.org/1999/xlink" width="302.4pt" height="122.4pt" viewBox="0 0 302.4 122.4" xmlns="http://www.w3.org/2000/svg" version="1.1">
 <metadata>
  <rdf:RDF xmlns:dc="http://purl.org/dc/elements/1.1/" xmlns:cc="http://creativecommons.org/ns#" xmlns:rdf="http://www.w3.org/1999/02/22-rdf-syntax-ns#">
   <cc:Work>
    <dc:type rdf:resource="http://purl.org/dc/dcmitype/StillImage"/>
    <dc:date>2022-11-04T19:55:17.791547</dc:date>
    <dc:format>image/svg+xml</dc:format>
    <dc:creator>
     <cc:Agent>
      <dc:title>Matplotlib v3.5.1, https://matplotlib.org/</dc:title>
     </cc:Agent>
    </dc:creator>
   </cc:Work>
  </rdf:RDF>
 </metadata>
 <defs>
  <style type="text/css">*{stroke-linejoin: round; stroke-linecap: butt}</style>
 </defs>
 <g id="figure_1">
  <g id="patch_1">
   <path d="M 0 122.4 
L 302.4 122.4 
L 302.4 0 
L 0 0 
z
" style="fill: #ffffff"/>
  </g>
  <g id="axes_1">
   <g id="patch_2">
    <path d="M 37.8 108.936 
L 272.16 108.936 
L 272.16 14.688 
L 37.8 14.688 
z
" style="fill: #ffffff"/>
   </g>
   <g id="matplotlib.axis_1">
    <g id="xtick_1">
     <g id="line2d_1">
      <defs>
       <path id="m8ed07bf399" d="M 0 0 
L 0 3.5 
" style="stroke: #000000; stroke-width: 0.8"/>
      </defs>
      <g>
       <use xlink:href="#m8ed07bf399" x="48.452727" y="108.936" style="stroke: #000000; stroke-width: 0.8"/>
      </g>
     </g>
     <g id="text_1">
      <!-- 0 -->
      <g transform="translate(42.090227 131.132875)scale(0.2 -0.2)">
       <defs>
        <path id="DejaVuSans-30" d="M 2034 4250 
Q 1547 4250 1301 3770 
Q 1056 3291 1056 2328 
Q 1056 1369 1301 889 
Q 1547 409 2034 409 
Q 2525 409 2770 889 
Q 3016 1369 3016 2328 
Q 3016 3291 2770 3770 
Q 2525 4250 2034 4250 
z
M 2034 4750 
Q 2819 4750 3233 4129 
Q 3647 3509 3647 2328 
Q 3647 1150 3233 529 
Q 2819 -91 2034 -91 
Q 1250 -91 836 529 
Q 422 1150 422 2328 
Q 422 3509 836 4129 
Q 1250 4750 2034 4750 
z
" transform="scale(0.015625)"/>
       </defs>
       <use xlink:href="#DejaVuSans-30"/>
      </g>
     </g>
    </g>
    <g id="xtick_2">
     <g id="line2d_2">
      <g>
       <use xlink:href="#m8ed07bf399" x="246.018144" y="108.936" style="stroke: #000000; stroke-width: 0.8"/>
      </g>
     </g>
     <g id="text_2">
      <!-- 10 -->
      <g transform="translate(233.293144 131.132875)scale(0.2 -0.2)">
       <defs>
        <path id="DejaVuSans-31" d="M 794 531 
L 1825 531 
L 1825 4091 
L 703 3866 
L 703 4441 
L 1819 4666 
L 2450 4666 
L 2450 531 
L 3481 531 
L 3481 0 
L 794 0 
L 794 531 
z
" transform="scale(0.015625)"/>
       </defs>
       <use xlink:href="#DejaVuSans-31"/>
       <use xlink:href="#DejaVuSans-30" x="63.623047"/>
      </g>
     </g>
    </g>
    <g id="text_3">
     <!-- time [ms] -->
     <g transform="translate(106.456563 154.489125)scale(0.2 -0.2)">
      <defs>
       <path id="DejaVuSans-74" d="M 1172 4494 
L 1172 3500 
L 2356 3500 
L 2356 3053 
L 1172 3053 
L 1172 1153 
Q 1172 725 1289 603 
Q 1406 481 1766 481 
L 2356 481 
L 2356 0 
L 1766 0 
Q 1100 0 847 248 
Q 594 497 594 1153 
L 594 3053 
L 172 3053 
L 172 3500 
L 594 3500 
L 594 4494 
L 1172 4494 
z
" transform="scale(0.015625)"/>
       <path id="DejaVuSans-69" d="M 603 3500 
L 1178 3500 
L 1178 0 
L 603 0 
L 603 3500 
z
M 603 4863 
L 1178 4863 
L 1178 4134 
L 603 4134 
L 603 4863 
z
" transform="scale(0.015625)"/>
       <path id="DejaVuSans-6d" d="M 3328 2828 
Q 3544 3216 3844 3400 
Q 4144 3584 4550 3584 
Q 5097 3584 5394 3201 
Q 5691 2819 5691 2113 
L 5691 0 
L 5113 0 
L 5113 2094 
Q 5113 2597 4934 2840 
Q 4756 3084 4391 3084 
Q 3944 3084 3684 2787 
Q 3425 2491 3425 1978 
L 3425 0 
L 2847 0 
L 2847 2094 
Q 2847 2600 2669 2842 
Q 2491 3084 2119 3084 
Q 1678 3084 1418 2786 
Q 1159 2488 1159 1978 
L 1159 0 
L 581 0 
L 581 3500 
L 1159 3500 
L 1159 2956 
Q 1356 3278 1631 3431 
Q 1906 3584 2284 3584 
Q 2666 3584 2933 3390 
Q 3200 3197 3328 2828 
z
" transform="scale(0.015625)"/>
       <path id="DejaVuSans-65" d="M 3597 1894 
L 3597 1613 
L 953 1613 
Q 991 1019 1311 708 
Q 1631 397 2203 397 
Q 2534 397 2845 478 
Q 3156 559 3463 722 
L 3463 178 
Q 3153 47 2828 -22 
Q 2503 -91 2169 -91 
Q 1331 -91 842 396 
Q 353 884 353 1716 
Q 353 2575 817 3079 
Q 1281 3584 2069 3584 
Q 2775 3584 3186 3129 
Q 3597 2675 3597 1894 
z
M 3022 2063 
Q 3016 2534 2758 2815 
Q 2500 3097 2075 3097 
Q 1594 3097 1305 2825 
Q 1016 2553 972 2059 
L 3022 2063 
z
" transform="scale(0.015625)"/>
       <path id="DejaVuSans-20" transform="scale(0.015625)"/>
       <path id="DejaVuSans-5b" d="M 550 4863 
L 1875 4863 
L 1875 4416 
L 1125 4416 
L 1125 -397 
L 1875 -397 
L 1875 -844 
L 550 -844 
L 550 4863 
z
" transform="scale(0.015625)"/>
       <path id="DejaVuSans-73" d="M 2834 3397 
L 2834 2853 
Q 2591 2978 2328 3040 
Q 2066 3103 1784 3103 
Q 1356 3103 1142 2972 
Q 928 2841 928 2578 
Q 928 2378 1081 2264 
Q 1234 2150 1697 2047 
L 1894 2003 
Q 2506 1872 2764 1633 
Q 3022 1394 3022 966 
Q 3022 478 2636 193 
Q 2250 -91 1575 -91 
Q 1294 -91 989 -36 
Q 684 19 347 128 
L 347 722 
Q 666 556 975 473 
Q 1284 391 1588 391 
Q 1994 391 2212 530 
Q 2431 669 2431 922 
Q 2431 1156 2273 1281 
Q 2116 1406 1581 1522 
L 1381 1569 
Q 847 1681 609 1914 
Q 372 2147 372 2553 
Q 372 3047 722 3315 
Q 1072 3584 1716 3584 
Q 2034 3584 2315 3537 
Q 2597 3491 2834 3397 
z
" transform="scale(0.015625)"/>
       <path id="DejaVuSans-5d" d="M 1947 4863 
L 1947 -844 
L 622 -844 
L 622 -397 
L 1369 -397 
L 1369 4416 
L 622 4416 
L 622 4863 
L 1947 4863 
z
" transform="scale(0.015625)"/>
      </defs>
      <use xlink:href="#DejaVuSans-74"/>
      <use xlink:href="#DejaVuSans-69" x="39.208984"/>
      <use xlink:href="#DejaVuSans-6d" x="66.992188"/>
      <use xlink:href="#DejaVuSans-65" x="164.404297"/>
      <use xlink:href="#DejaVuSans-20" x="225.927734"/>
      <use xlink:href="#DejaVuSans-5b" x="257.714844"/>
      <use xlink:href="#DejaVuSans-6d" x="296.728516"/>
      <use xlink:href="#DejaVuSans-73" x="394.140625"/>
      <use xlink:href="#DejaVuSans-5d" x="446.240234"/>
     </g>
    </g>
   </g>
   <g id="matplotlib.axis_2">
    <g id="ytick_1">
     <g id="line2d_3">
      <defs>
       <path id="mdc0c86d598" d="M 0 0 
L -3.5 0 
" style="stroke: #000000; stroke-width: 0.8"/>
      </defs>
      <g>
       <use xlink:href="#mdc0c86d598" x="37.8" y="82.578123" style="stroke: #000000; stroke-width: 0.8"/>
      </g>
     </g>
     <g id="text_4">
      <!-- −5 -->
      <g transform="translate(1.315625 90.17656)scale(0.2 -0.2)">
       <defs>
        <path id="DejaVuSans-2212" d="M 678 2272 
L 4684 2272 
L 4684 1741 
L 678 1741 
L 678 2272 
z
" transform="scale(0.015625)"/>
        <path id="DejaVuSans-35" d="M 691 4666 
L 3169 4666 
L 3169 4134 
L 1269 4134 
L 1269 2991 
Q 1406 3038 1543 3061 
Q 1681 3084 1819 3084 
Q 2600 3084 3056 2656 
Q 3513 2228 3513 1497 
Q 3513 744 3044 326 
Q 2575 -91 1722 -91 
Q 1428 -91 1123 -41 
Q 819 9 494 109 
L 494 744 
Q 775 591 1075 516 
Q 1375 441 1709 441 
Q 2250 441 2565 725 
Q 2881 1009 2881 1497 
Q 2881 1984 2565 2268 
Q 2250 2553 1709 2553 
Q 1456 2553 1204 2497 
Q 953 2441 691 2322 
L 691 4666 
z
" transform="scale(0.015625)"/>
       </defs>
       <use xlink:href="#DejaVuSans-2212"/>
       <use xlink:href="#DejaVuSans-35" x="83.789062"/>
      </g>
     </g>
    </g>
    <g id="ytick_2">
     <g id="line2d_4">
      <g>
       <use xlink:href="#mdc0c86d598" x="37.8" y="54.09938" style="stroke: #000000; stroke-width: 0.8"/>
      </g>
     </g>
     <g id="text_5">
      <!-- 0 -->
      <g transform="translate(18.075 61.697818)scale(0.2 -0.2)">
       <use xlink:href="#DejaVuSans-30"/>
      </g>
     </g>
    </g>
    <g id="ytick_3">
     <g id="line2d_5">
      <g>
       <use xlink:href="#mdc0c86d598" x="37.8" y="25.620638" style="stroke: #000000; stroke-width: 0.8"/>
      </g>
     </g>
     <g id="text_6">
      <!-- 5 -->
      <g transform="translate(18.075 33.219076)scale(0.2 -0.2)">
       <use xlink:href="#DejaVuSans-35"/>
      </g>
     </g>
    </g>
    <g id="text_7">
     <!-- tilts [px] -->
     <g transform="translate(-6.84375 103.666687)rotate(-90)scale(0.2 -0.2)">
      <defs>
       <path id="DejaVuSans-6c" d="M 603 4863 
L 1178 4863 
L 1178 0 
L 603 0 
L 603 4863 
z
" transform="scale(0.015625)"/>
       <path id="DejaVuSans-70" d="M 1159 525 
L 1159 -1331 
L 581 -1331 
L 581 3500 
L 1159 3500 
L 1159 2969 
Q 1341 3281 1617 3432 
Q 1894 3584 2278 3584 
Q 2916 3584 3314 3078 
Q 3713 2572 3713 1747 
Q 3713 922 3314 415 
Q 2916 -91 2278 -91 
Q 1894 -91 1617 61 
Q 1341 213 1159 525 
z
M 3116 1747 
Q 3116 2381 2855 2742 
Q 2594 3103 2138 3103 
Q 1681 3103 1420 2742 
Q 1159 2381 1159 1747 
Q 1159 1113 1420 752 
Q 1681 391 2138 391 
Q 2594 391 2855 752 
Q 3116 1113 3116 1747 
z
" transform="scale(0.015625)"/>
       <path id="DejaVuSans-78" d="M 3513 3500 
L 2247 1797 
L 3578 0 
L 2900 0 
L 1881 1375 
L 863 0 
L 184 0 
L 1544 1831 
L 300 3500 
L 978 3500 
L 1906 2253 
L 2834 3500 
L 3513 3500 
z
" transform="scale(0.015625)"/>
      </defs>
      <use xlink:href="#DejaVuSans-74"/>
      <use xlink:href="#DejaVuSans-69" x="39.208984"/>
      <use xlink:href="#DejaVuSans-6c" x="66.992188"/>
      <use xlink:href="#DejaVuSans-74" x="94.775391"/>
      <use xlink:href="#DejaVuSans-73" x="133.984375"/>
      <use xlink:href="#DejaVuSans-20" x="186.083984"/>
      <use xlink:href="#DejaVuSans-5b" x="217.871094"/>
      <use xlink:href="#DejaVuSans-70" x="256.884766"/>
      <use xlink:href="#DejaVuSans-78" x="320.361328"/>
      <use xlink:href="#DejaVuSans-5d" x="379.541016"/>
     </g>
    </g>
   </g>
   <g id="line2d_6">
    <path d="M 48.452727 53.239903 
L 52.562088 53.207439 
L 53.194297 53.377523 
L 53.826507 53.576033 
L 54.142611 53.447626 
L 54.458716 52.991419 
L 54.774821 52.110494 
L 55.40703 49.221317 
L 56.039239 46.574496 
L 56.355344 46.366705 
L 56.671449 47.409114 
L 56.987553 49.864046 
L 57.619763 58.468418 
L 58.568077 73.6189 
L 58.884181 77.085355 
L 59.200286 79.097924 
L 59.516391 79.489956 
L 59.832495 78.277662 
L 60.1486 75.600677 
L 60.780809 66.777145 
L 62.677437 34.969551 
L 63.309647 27.841409 
L 63.941856 22.99932 
L 64.574065 20.276718 
L 64.89017 19.594274 
L 65.206275 19.241609 
L 65.838484 19.042525 
L 66.786798 19.019492 
L 67.102903 19.281603 
L 67.419007 19.916547 
L 67.735112 21.078515 
L 68.051217 22.872004 
L 68.683426 28.276417 
L 69.63174 37.938361 
L 69.947845 40.274745 
L 70.263949 41.658489 
L 70.580054 41.963464 
L 70.896159 41.231816 
L 72.160577 35.10764 
L 72.476682 34.934037 
L 72.792787 35.818831 
L 73.108891 37.686428 
L 73.741101 43.37057 
L 75.005519 55.571466 
L 75.637729 60.201606 
L 76.269938 63.640027 
L 76.902147 65.91883 
L 77.534357 67.341708 
L 78.798775 69.684357 
L 81.011508 74.308268 
L 81.643717 75.683848 
L 82.592031 78.380556 
L 83.540345 81.025109 
L 84.172555 82.104039 
L 84.804764 82.571636 
L 85.753078 82.925063 
L 86.385287 83.479365 
L 87.333601 84.513415 
L 87.649706 84.630203 
L 87.965811 84.519855 
L 88.281915 84.155966 
L 88.914125 82.736758 
L 89.862439 79.446842 
L 92.075171 70.671461 
L 92.391276 70.014323 
L 92.707381 69.666852 
L 93.023485 69.642458 
L 93.33959 69.93792 
L 93.655695 70.533777 
L 94.287904 72.434835 
L 95.552323 76.829104 
L 95.868427 77.505805 
L 96.184532 77.85062 
L 96.500637 77.826511 
L 96.816741 77.450838 
L 97.448951 76.000862 
L 98.08116 74.672335 
L 98.397265 74.509312 
L 98.713369 74.86009 
L 99.029474 75.767196 
L 99.661683 78.967726 
L 100.609997 84.303197 
L 100.926102 85.311909 
L 101.242207 85.69116 
L 101.558311 85.42159 
L 101.874416 84.591338 
L 103.138835 79.840427 
L 103.454939 79.456015 
L 103.771044 79.713608 
L 104.087149 80.621328 
L 104.719358 84.028844 
L 106.615986 96.754426 
L 107.5643 101.346413 
L 108.196509 103.081682 
L 108.512614 103.341787 
L 108.828719 103.131446 
L 109.144823 102.46571 
L 109.777033 100.100308 
L 110.725347 96.108282 
L 111.357556 94.521575 
L 112.621975 92.804393 
L 113.254184 90.862281 
L 114.518603 85.695361 
L 114.834707 85.022126 
L 115.150812 84.794686 
L 115.466917 84.97645 
L 116.099126 86.095615 
L 116.731335 87.269197 
L 117.04744 87.597116 
L 117.363545 87.696194 
L 117.679649 87.586487 
L 119.260173 86.363553 
L 119.576277 86.424383 
L 120.208487 86.932772 
L 121.156801 88.18299 
L 122.105115 89.852738 
L 123.053429 92.211447 
L 124.001743 94.515808 
L 124.633952 95.411888 
L 124.950057 95.617589 
L 125.582266 95.662066 
L 126.214475 95.568491 
L 126.53058 95.621875 
L 126.846685 95.808597 
L 127.162789 96.158259 
L 127.794999 97.341824 
L 129.059417 100.706254 
L 130.007731 103.003833 
L 130.639941 104.09857 
L 131.27215 104.637803 
L 131.588255 104.652 
L 131.904359 104.487073 
L 132.536569 103.685852 
L 134.433197 100.492138 
L 135.065406 99.938841 
L 136.329825 99.020777 
L 136.962034 98.194441 
L 137.594243 97.006155 
L 139.806976 92.202616 
L 141.071395 90.20401 
L 141.703604 88.680401 
L 143.284127 84.198216 
L 144.232441 82.495166 
L 145.180755 80.924471 
L 146.129069 78.777562 
L 147.393488 75.883695 
L 148.974011 72.89808 
L 149.606221 70.935849 
L 150.554535 66.773987 
L 152.767267 56.241805 
L 153.399477 54.139643 
L 154.031686 52.697882 
L 154.663895 51.902072 
L 154.98 51.750683 
L 155.296105 51.76017 
L 155.612209 51.92592 
L 156.244419 52.673624 
L 158.773256 56.705305 
L 160.037675 58.251968 
L 160.669884 59.338767 
L 161.618198 61.447311 
L 163.514826 65.878202 
L 164.46314 67.592955 
L 165.095349 68.429498 
L 165.727559 68.89939 
L 166.359768 68.940361 
L 166.991977 68.557252 
L 167.624187 67.820885 
L 169.520815 65.17196 
L 170.153024 64.812097 
L 170.785233 64.808482 
L 172.049652 65.08098 
L 172.681861 64.908319 
L 173.314071 64.327773 
L 173.94628 63.336416 
L 176.475117 58.63179 
L 177.423431 57.537298 
L 178.055641 57.086484 
L 179.003955 56.747387 
L 180.268373 56.667246 
L 181.216687 56.840328 
L 181.848897 57.228718 
L 182.481106 57.967566 
L 183.113315 59.120109 
L 184.061629 61.490964 
L 185.642153 65.690199 
L 189.751513 74.904243 
L 190.383723 75.697359 
L 190.699827 75.886372 
L 191.015932 75.945221 
L 191.648141 75.745854 
L 192.596455 75.015022 
L 193.228665 74.572759 
L 193.860874 74.452265 
L 194.493083 74.69977 
L 195.125293 74.999053 
L 195.441397 75.025708 
L 195.757502 74.913091 
L 196.389711 74.244105 
L 197.338025 72.55046 
L 198.918549 69.700376 
L 203.344014 62.168369 
L 204.292328 60.775435 
L 204.924537 60.137804 
L 205.556747 59.840036 
L 206.505061 59.813543 
L 208.401689 59.899896 
L 209.350003 59.701266 
L 210.298317 59.212413 
L 211.246631 58.473263 
L 213.143259 56.694185 
L 213.775468 56.429042 
L 214.407677 56.344944 
L 215.039887 56.423396 
L 215.988201 56.802458 
L 216.936515 57.202193 
L 217.568724 57.304012 
L 218.517038 57.18903 
L 220.729771 56.483687 
L 221.678085 56.123475 
L 222.310294 55.680013 
L 222.942503 54.973136 
L 223.890817 53.504074 
L 226.419655 49.326432 
L 228.316283 46.455892 
L 228.948492 45.877428 
L 230.529015 44.663678 
L 231.477329 43.325756 
L 232.109539 42.465525 
L 232.741748 41.996172 
L 233.373957 41.932371 
L 234.322271 42.233031 
L 235.58669 42.955645 
L 236.535004 43.355968 
L 237.167213 43.365937 
L 238.115527 43.099416 
L 239.063841 42.60936 
L 239.696051 42.078282 
L 240.644365 40.915303 
L 241.908783 38.900201 
L 243.173202 36.883919 
L 243.805411 36.28823 
L 244.437621 36.086733 
L 245.06983 36.261328 
L 245.702039 36.792503 
L 246.334249 37.651565 
L 247.282563 39.39246 
L 248.546981 42.244993 
L 250.443609 47.286408 
L 251.708028 50.422783 
L 252.340237 51.558815 
L 252.972447 52.259551 
L 253.604656 52.503906 
L 254.236865 52.326661 
L 254.869075 51.796791 
L 255.817389 50.586819 
L 257.397912 48.169404 
L 260.242854 43.429691 
L 261.191168 42.495962 
L 261.507273 42.27101 
L 261.507273 42.27101 
" clip-path="url(#pfe1c853459)" style="fill: none; stroke: #049dd9; stroke-width: 1.5; stroke-linecap: square"/>
   </g>
   <g id="line2d_7">
    <path d="M 48.452727 53.326189 
L 51.929879 53.288746 
L 52.562088 53.068141 
L 53.826507 52.447178 
L 54.142611 52.449555 
L 54.458716 52.573803 
L 55.090925 53.203344 
L 55.723135 54.252875 
L 58.251972 59.268825 
L 58.884181 59.888902 
L 59.200286 59.997092 
L 59.516391 59.95415 
L 59.832495 59.750289 
L 60.464705 58.849444 
L 61.096914 57.305175 
L 61.729123 55.137504 
L 62.677437 50.77865 
L 64.257961 41.709304 
L 65.838484 33.123092 
L 66.786798 29.122304 
L 67.419007 27.189221 
L 68.051217 25.92917 
L 68.683426 25.336712 
L 68.999531 25.275673 
L 69.315635 25.362183 
L 69.63174 25.591331 
L 70.263949 26.478418 
L 70.896159 27.947816 
L 71.528368 29.991478 
L 72.160577 32.605632 
L 73.108891 37.640917 
L 75.005519 48.804379 
L 75.953833 52.81685 
L 76.586043 54.738223 
L 77.534357 56.795654 
L 78.482671 58.672827 
L 79.11488 60.27148 
L 80.063194 63.426944 
L 82.908136 73.943414 
L 84.804764 79.583231 
L 85.436973 80.980938 
L 86.069183 81.886725 
L 86.701392 82.283147 
L 87.333601 82.214401 
L 87.965811 81.720637 
L 88.59802 80.864315 
L 91.759067 75.744506 
L 92.707381 74.892372 
L 93.655695 74.329464 
L 94.287904 74.157094 
L 94.920113 74.213789 
L 95.552323 74.526365 
L 96.184532 75.103396 
L 97.132846 76.436372 
L 99.977788 81.1317 
L 101.558311 83.294174 
L 102.506625 84.930615 
L 103.454939 86.977351 
L 104.719358 90.320451 
L 106.615986 95.514106 
L 107.5643 97.456108 
L 108.512614 98.747177 
L 109.777033 99.90271 
L 110.409242 100.27782 
L 110.725347 100.351722 
L 111.041451 100.309628 
L 111.357556 100.130423 
L 111.989765 99.352432 
L 112.938079 97.487679 
L 116.415231 90.520501 
L 117.04744 89.774491 
L 117.679649 89.471866 
L 118.311859 89.47896 
L 119.260173 89.767125 
L 121.156801 90.539799 
L 121.78901 91.030212 
L 122.421219 91.802701 
L 123.369533 93.43843 
L 125.582266 97.599017 
L 126.53058 98.828369 
L 127.478894 99.600589 
L 131.27215 101.862159 
L 132.536569 102.481266 
L 133.168778 102.527911 
L 133.800987 102.25694 
L 134.433197 101.639598 
L 135.065406 100.729754 
L 136.01372 98.951515 
L 138.542557 93.843682 
L 139.490871 92.501124 
L 140.439185 91.589647 
L 141.387499 90.668548 
L 142.019709 89.786843 
L 142.651918 88.592728 
L 143.916337 85.533625 
L 145.180755 82.568372 
L 146.129069 80.833335 
L 150.23843 74.375895 
L 150.870639 72.967032 
L 151.818953 70.223712 
L 153.715581 64.442641 
L 155.928314 58.657973 
L 156.560523 57.464425 
L 157.192733 56.615879 
L 157.824942 56.111029 
L 158.457151 55.934942 
L 159.089361 56.041533 
L 159.72157 56.412623 
L 160.353779 57.086934 
L 160.985989 58.133535 
L 161.934303 60.311271 
L 163.514826 64.04858 
L 164.46314 65.755028 
L 165.411454 67.046097 
L 166.043663 67.64656 
L 166.675873 68.010704 
L 167.308082 68.118996 
L 167.940291 67.970463 
L 168.572501 67.610847 
L 169.520815 66.817551 
L 170.469129 65.775666 
L 171.733547 63.940057 
L 172.681861 62.629655 
L 173.94628 61.361973 
L 175.526803 60.138184 
L 178.371745 58.185859 
L 179.320059 58.060303 
L 180.268373 58.164923 
L 183.42942 58.873638 
L 184.061629 59.283136 
L 184.693839 59.923233 
L 185.326048 60.82644 
L 186.274362 62.692692 
L 187.854885 66.65381 
L 189.119304 69.5474 
L 190.067618 71.167338 
L 191.332037 72.739261 
L 192.91256 74.368863 
L 193.860874 75.041843 
L 194.809188 75.424034 
L 198.602444 76.610669 
L 200.815177 77.601477 
L 201.763491 77.702533 
L 202.3957 77.576234 
L 203.027909 77.279955 
L 203.976223 76.521915 
L 204.924537 75.472058 
L 205.872851 74.128908 
L 210.614421 66.454799 
L 211.562735 65.399339 
L 214.723782 62.335099 
L 216.304305 60.335904 
L 221.994189 52.591887 
L 223.258608 51.540446 
L 224.206922 51.047748 
L 225.155236 50.881568 
L 226.10355 50.966297 
L 227.051864 51.244979 
L 228.948492 52.056475 
L 229.896806 52.143259 
L 230.84512 52.016938 
L 231.477329 51.742349 
L 232.425643 50.976505 
L 236.535004 46.841157 
L 239.063841 43.75404 
L 239.696051 43.381222 
L 240.644365 43.095751 
L 242.540993 42.558296 
L 243.489307 42.127402 
L 244.121516 41.542224 
L 245.702039 39.518071 
L 246.018144 39.459533 
L 246.334249 39.584551 
L 246.966458 40.272765 
L 247.914772 41.812263 
L 248.863086 43.724909 
L 250.127505 46.820312 
L 251.708028 50.798609 
L 252.656342 52.641333 
L 253.288551 53.44739 
L 253.920761 53.784855 
L 254.236865 53.755388 
L 254.869075 53.338158 
L 258.662331 49.46583 
L 259.926749 48.343673 
L 260.558959 47.992285 
L 261.507273 47.733561 
L 261.507273 47.733561 
" clip-path="url(#pfe1c853459)" style="fill: none; stroke: #bf0436; stroke-width: 1.5; stroke-linecap: square"/>
   </g>
   <g id="line2d_8">
    <path d="M 48.452727 52.781603 
L 50.349355 53.331517 
L 51.929879 53.702707 
L 53.826507 54.241966 
L 57.935867 55.124706 
L 61.413019 56.248773 
L 64.257961 57.335706 
L 65.838484 57.895488 
L 67.419007 58.743282 
L 74.37331 62.962482 
L 75.953833 64.141317 
L 80.063194 67.386306 
L 81.643717 68.776742 
L 84.804764 71.848015 
L 91.442962 76.995096 
L 97.448951 82.009916 
L 99.977788 84.303899 
L 102.82273 86.830457 
L 104.719358 88.52447 
L 108.828719 91.831375 
L 114.202498 96.018017 
L 120.208487 100.035298 
L 124.001743 101.997157 
L 125.266161 102.22788 
L 126.846685 102.59088 
L 130.323836 103.534677 
L 132.220464 103.538785 
L 134.433197 103.592441 
L 136.01372 103.752257 
L 137.278139 103.530491 
L 138.226453 103.470873 
L 141.071395 103.587048 
L 142.335813 103.369579 
L 143.916337 103.044109 
L 146.445174 102.776792 
L 148.025697 102.323744 
L 149.290116 101.984076 
L 150.870639 101.610945 
L 154.663895 100.218114 
L 160.985989 97.47428 
L 166.991977 94.449284 
L 171.101338 92.058486 
L 172.997966 91.172771 
L 175.210699 90.348938 
L 180.584478 87.510895 
L 182.165001 86.649986 
L 185.326048 85.282023 
L 188.803199 83.505405 
L 191.964246 81.981355 
L 194.493083 80.772926 
L 196.389711 79.828993 
L 197.970235 79.503202 
L 199.234653 79.059779 
L 204.292328 76.69153 
L 205.872851 76.002988 
L 207.453375 75.442096 
L 209.666107 74.170911 
L 211.562735 73.160199 
L 213.143259 72.270637 
L 214.407677 71.634636 
L 215.672096 71.079795 
L 216.936515 70.18701 
L 218.517038 69.133133 
L 223.574713 66.296177 
L 225.471341 65.235465 
L 228.632387 63.576769 
L 230.529015 62.188102 
L 232.109539 60.956212 
L 243.173202 54.799296 
L 244.753725 53.751003 
L 246.018144 53.019849 
L 248.546981 51.25795 
L 249.8114 50.757346 
L 251.075819 50.227039 
L 255.185179 47.989582 
L 257.397912 47.113079 
L 260.558959 46.197772 
L 261.507273 45.715569 
L 261.507273 45.715569 
" clip-path="url(#pfe1c853459)" style="fill: none; stroke: #e7dad2; stroke-width: 1.5; stroke-linecap: square"/>
   </g>
   <g id="patch_3">
    <path d="M 37.8 108.936 
L 37.8 14.688 
" style="fill: none; stroke: #000000; stroke-width: 0.8; stroke-linejoin: miter; stroke-linecap: square"/>
   </g>
   <g id="patch_4">
    <path d="M 272.16 108.936 
L 272.16 14.688 
" style="fill: none; stroke: #000000; stroke-width: 0.8; stroke-linejoin: miter; stroke-linecap: square"/>
   </g>
   <g id="patch_5">
    <path d="M 37.8 108.936 
L 272.16 108.936 
" style="fill: none; stroke: #000000; stroke-width: 0.8; stroke-linejoin: miter; stroke-linecap: square"/>
   </g>
   <g id="patch_6">
    <path d="M 37.8 14.688 
L 272.16 14.688 
" style="fill: none; stroke: #000000; stroke-width: 0.8; stroke-linejoin: miter; stroke-linecap: square"/>
   </g>
  </g>
 </g>
 <defs>
  <clipPath id="pfe1c853459">
   <rect x="37.8" y="14.688" width="234.36" height="94.248"/>
  </clipPath>
 </defs>
</svg>
