<?xml version="1.0" encoding="UTF-8" standalone="no"?>
<!-- Created with Inkscape (http://www.inkscape.org/) -->

<svg
   version="1.1"
   id="svg822"
   width="785"
   height="450"
   viewBox="0 0 785 450"
   sodipodi:docname="figure_yopo.svg"
   inkscape:version="1.2.1 (9c6d41e4, 2022-07-14)"
   xml:space="preserve"
   inkscape:export-filename="figure_yopo.png"
   inkscape:export-xdpi="96"
   inkscape:export-ydpi="96"
   xmlns:inkscape="http://www.inkscape.org/namespaces/inkscape"
   xmlns:sodipodi="http://sodipodi.sourceforge.net/DTD/sodipodi-0.dtd"
   xmlns="http://www.w3.org/2000/svg"
   xmlns:svg="http://www.w3.org/2000/svg"><defs
     id="defs826"><clipPath
       clipPathUnits="userSpaceOnUse"
       id="clipPath185"><path
         d="M 0,1.2207e-4 H 960 V 540.00012 H 0 Z"
         clip-rule="evenodd"
         id="path183" /></clipPath><clipPath
       clipPathUnits="userSpaceOnUse"
       id="clipPath273"><path
         d="M 1.4305e-5,0 H 960.00001 V 540 H 1.4305e-5 Z"
         clip-rule="evenodd"
         id="path271" /></clipPath><clipPath
       clipPathUnits="userSpaceOnUse"
       id="clipPath285"><path
         d="M 1.4305e-5,0 H 960.00001 V 540 H 1.4305e-5 Z"
         clip-rule="evenodd"
         id="path283" /></clipPath><clipPath
       clipPathUnits="userSpaceOnUse"
       id="clipPath297"><path
         d="M 1.4305e-5,0 H 960.00001 V 540 H 1.4305e-5 Z"
         clip-rule="evenodd"
         id="path295" /></clipPath><clipPath
       clipPathUnits="userSpaceOnUse"
       id="clipPath309"><path
         d="M 1.4305e-5,0 H 960.00001 V 540 H 1.4305e-5 Z"
         clip-rule="evenodd"
         id="path307" /></clipPath><clipPath
       clipPathUnits="userSpaceOnUse"
       id="clipPath321"><path
         d="M 1.4305e-5,0 H 960.00001 V 540 H 1.4305e-5 Z"
         clip-rule="evenodd"
         id="path319" /></clipPath><clipPath
       clipPathUnits="userSpaceOnUse"
       id="clipPath333"><path
         d="M 1.4305e-5,0 H 960.00001 V 540 H 1.4305e-5 Z"
         clip-rule="evenodd"
         id="path331" /></clipPath><clipPath
       clipPathUnits="userSpaceOnUse"
       id="clipPath405"><path
         d="M 1.4305e-5,0 H 960.00001 V 540 H 1.4305e-5 Z"
         clip-rule="evenodd"
         id="path403" /></clipPath><clipPath
       clipPathUnits="userSpaceOnUse"
       id="clipPath417"><path
         d="M 1.4305e-5,0 H 960.00001 V 540 H 1.4305e-5 Z"
         clip-rule="evenodd"
         id="path415" /></clipPath><clipPath
       clipPathUnits="userSpaceOnUse"
       id="clipPath429"><path
         d="M 1.4305e-5,0 H 960.00001 V 540 H 1.4305e-5 Z"
         clip-rule="evenodd"
         id="path427" /></clipPath><clipPath
       clipPathUnits="userSpaceOnUse"
       id="clipPath441"><path
         d="M 1.4305e-5,0 H 960.00001 V 540 H 1.4305e-5 Z"
         clip-rule="evenodd"
         id="path439" /></clipPath><clipPath
       clipPathUnits="userSpaceOnUse"
       id="clipPath455"><path
         d="M 1.4305e-5,0 H 960.00001 V 540 H 1.4305e-5 Z"
         clip-rule="evenodd"
         id="path453" /></clipPath><clipPath
       clipPathUnits="userSpaceOnUse"
       id="clipPath467"><path
         d="M 1.4305e-5,0 H 960.00001 V 540 H 1.4305e-5 Z"
         clip-rule="evenodd"
         id="path465" /></clipPath><clipPath
       clipPathUnits="userSpaceOnUse"
       id="clipPath479"><path
         d="M 1.4305e-5,0 H 960.00001 V 540 H 1.4305e-5 Z"
         clip-rule="evenodd"
         id="path477" /></clipPath><clipPath
       clipPathUnits="userSpaceOnUse"
       id="clipPath491"><path
         d="M 1.4305e-5,0 H 960.00001 V 540 H 1.4305e-5 Z"
         clip-rule="evenodd"
         id="path489" /></clipPath><clipPath
       clipPathUnits="userSpaceOnUse"
       id="clipPath579"><path
         d="M 1.4305e-5,0 H 960.00001 V 540 H 1.4305e-5 Z"
         clip-rule="evenodd"
         id="path577" /></clipPath><clipPath
       clipPathUnits="userSpaceOnUse"
       id="clipPath591"><path
         d="M 1.4305e-5,0 H 960.00001 V 540 H 1.4305e-5 Z"
         clip-rule="evenodd"
         id="path589" /></clipPath><clipPath
       clipPathUnits="userSpaceOnUse"
       id="clipPath603"><path
         d="M 1.4305e-5,0 H 960.00001 V 540 H 1.4305e-5 Z"
         clip-rule="evenodd"
         id="path601" /></clipPath><clipPath
       clipPathUnits="userSpaceOnUse"
       id="clipPath615"><path
         d="M 1.4305e-5,0 H 960.00001 V 540 H 1.4305e-5 Z"
         clip-rule="evenodd"
         id="path613" /></clipPath><clipPath
       clipPathUnits="userSpaceOnUse"
       id="clipPath627"><path
         d="M 1.4305e-5,0 H 960.00001 V 540 H 1.4305e-5 Z"
         clip-rule="evenodd"
         id="path625" /></clipPath><clipPath
       clipPathUnits="userSpaceOnUse"
       id="clipPath639"><path
         d="M 1.4305e-5,0 H 960.00001 V 540 H 1.4305e-5 Z"
         clip-rule="evenodd"
         id="path637" /></clipPath><clipPath
       clipPathUnits="userSpaceOnUse"
       id="clipPath653"><path
         d="M 1.4305e-5,0 H 960.00001 V 540 H 1.4305e-5 Z"
         clip-rule="evenodd"
         id="path651" /></clipPath><clipPath
       clipPathUnits="userSpaceOnUse"
       id="clipPath665"><path
         d="M 1.4305e-5,0 H 960.00001 V 540 H 1.4305e-5 Z"
         clip-rule="evenodd"
         id="path663" /></clipPath><clipPath
       clipPathUnits="userSpaceOnUse"
       id="clipPath681"><path
         d="M 1.4305e-5,0 H 960.00001 V 540 H 1.4305e-5 Z"
         clip-rule="evenodd"
         id="path679" /></clipPath><clipPath
       clipPathUnits="userSpaceOnUse"
       id="clipPath693"><path
         d="M 1.4305e-5,0 H 960.00001 V 540 H 1.4305e-5 Z"
         clip-rule="evenodd"
         id="path691" /></clipPath><clipPath
       clipPathUnits="userSpaceOnUse"
       id="clipPath705"><path
         d="M 1.4305e-5,0 H 960.00001 V 540 H 1.4305e-5 Z"
         clip-rule="evenodd"
         id="path703" /></clipPath><clipPath
       clipPathUnits="userSpaceOnUse"
       id="clipPath717"><path
         d="M 1.4305e-5,0 H 960.00001 V 540 H 1.4305e-5 Z"
         clip-rule="evenodd"
         id="path715" /></clipPath><clipPath
       clipPathUnits="userSpaceOnUse"
       id="clipPath729"><path
         d="M -6.1035e-5,540 H 960 V 0 L -6.1035e-5,6.1035e-5"
         clip-rule="evenodd"
         id="path727" /></clipPath><clipPath
       clipPathUnits="userSpaceOnUse"
       id="clipPath747"><path
         d="M 1.4305e-5,0 H 960.00001 V 540 H 1.4305e-5 Z"
         clip-rule="evenodd"
         id="path745" /></clipPath><clipPath
       clipPathUnits="userSpaceOnUse"
       id="clipPath759"><path
         d="M 1.4305e-5,0 H 960.00001 V 540 H 1.4305e-5 Z"
         clip-rule="evenodd"
         id="path757" /></clipPath><clipPath
       clipPathUnits="userSpaceOnUse"
       id="clipPath771"><path
         d="M 1.4305e-5,0 H 960.00001 V 540 H 1.4305e-5 Z"
         clip-rule="evenodd"
         id="path769" /></clipPath><clipPath
       clipPathUnits="userSpaceOnUse"
       id="clipPath789"><path
         d="M 1.4305e-5,0 H 960.00001 V 540 H 1.4305e-5 Z"
         clip-rule="evenodd"
         id="path787" /></clipPath><clipPath
       clipPathUnits="userSpaceOnUse"
       id="clipPath801"><path
         d="M 1.4305e-5,0 H 960.00001 V 540 H 1.4305e-5 Z"
         clip-rule="evenodd"
         id="path799" /></clipPath><clipPath
       clipPathUnits="userSpaceOnUse"
       id="clipPath813"><path
         d="M 1.4305e-5,0 H 960.00001 V 540 H 1.4305e-5 Z"
         clip-rule="evenodd"
         id="path811" /></clipPath></defs><sodipodi:namedview
     id="namedview824"
     pagecolor="#ffffff"
     bordercolor="#000000"
     borderopacity="0.25"
     inkscape:showpageshadow="2"
     inkscape:pageopacity="0.0"
     inkscape:pagecheckerboard="0"
     inkscape:deskcolor="#d1d1d1"
     showgrid="false"
     inkscape:zoom="0.76674681"
     inkscape:cx="397.7845"
     inkscape:cy="232.14965"
     inkscape:window-width="1419"
     inkscape:window-height="788"
     inkscape:window-x="0"
     inkscape:window-y="25"
     inkscape:window-maximized="0"
     inkscape:current-layer="svg822" /><g
     id="g830"
     inkscape:groupmode="layer"
     inkscape:label="Page 1"
     transform="matrix(1.3333333,0,0,1.3333333,0,1.5317585e-5)" /><path
     d="m 286.1391,125.35103 c 0,-19.37086 15.7033,-35.074168 35.0741,-35.074168 H 484.755 c 19.3708,0 35.0741,15.703308 35.0741,35.074168 v 140.29669 c 0,19.37947 -15.7033,35.08278 -35.0741,35.08278 H 321.2132 c -19.3708,0 -35.0741,-15.70331 -35.0741,-35.08278 z"
     style="fill:#deebf7;fill-opacity:1;fill-rule:evenodd;stroke:none;stroke-width:0.860925"
     id="path189" /><path
     d="m 322.7113,280.05964 h 6.2276 v -91.45629 h -6.2276 z"
     style="fill:#385723;fill-opacity:1;fill-rule:evenodd;stroke:none;stroke-width:0.860925"
     id="path191" /><path
     d="m 328.9358,188.60335 21.3596,-21.3596 v 91.45629 l -21.3596,21.3596 z"
     style="fill:#2d461c;fill-opacity:1;fill-rule:evenodd;stroke:none;stroke-width:0.860925"
     id="path193" /><path
     d="m 322.7113,188.60335 21.3596,-21.3596 h 6.2245 l -21.3596,21.3596 z"
     style="fill:#5f784e;fill-opacity:1;fill-rule:evenodd;stroke:none;stroke-width:0.860925"
     id="path195" /><path
     d="m 331.4927,279.85302 h 6.2044 v -91.43907 h -6.2044 z"
     style="fill:#ffff00;fill-opacity:1;fill-rule:evenodd;stroke:none;stroke-width:0.860925"
     id="path197" /><path
     d="m 337.7,188.41395 21.2735,-21.27351 v 91.43907 L 337.7,279.85302 Z"
     style="fill:#cdcd00;fill-opacity:1;fill-rule:evenodd;stroke:none;stroke-width:0.860925"
     id="path199" /><path
     d="m 331.4927,188.41395 21.2735,-21.27351 h 6.2073 L 337.7,188.41395 Z"
     style="fill:#ffff32;fill-opacity:1;fill-rule:evenodd;stroke:none;stroke-width:0.860925"
     id="path201" /><path
     d="m 358.9735,280.05964 h 6.2044 v -91.54238 h -6.2044 z"
     style="fill:#385723;fill-opacity:1;fill-rule:evenodd;stroke:none;stroke-width:0.860925"
     id="path203" /><path
     d="m 365.1808,188.51726 21.2735,-21.27351 v 91.54238 l -21.2735,21.27351 z"
     style="fill:#2d461c;fill-opacity:1;fill-rule:evenodd;stroke:none;stroke-width:0.860925"
     id="path205" /><path
     d="m 358.9735,188.51726 21.2735,-21.27351 h 6.2073 l -21.2735,21.27351 z"
     style="fill:#5f784e;fill-opacity:1;fill-rule:evenodd;stroke:none;stroke-width:0.860925"
     id="path207" /><path
     d="m 367.6517,279.95633 h 6.2043 v -91.54238 h -6.2043 z"
     style="fill:#ffff00;fill-opacity:1;fill-rule:evenodd;stroke:none;stroke-width:0.860925"
     id="path209" /><path
     d="m 373.8589,188.41395 21.2736,-21.27351 v 91.54238 l -21.2736,21.27351 z"
     style="fill:#cdcd00;fill-opacity:1;fill-rule:evenodd;stroke:none;stroke-width:0.860925"
     id="path211" /><path
     d="m 367.6517,188.41395 21.2735,-21.27351 h 6.2073 l -21.2736,21.27351 z"
     style="fill:#ffff32;fill-opacity:1;fill-rule:evenodd;stroke:none;stroke-width:0.860925"
     id="path213" /><path
     d="m 395.1325,280.05964 h 6.2043 v -91.54238 h -6.2043 z"
     style="fill:#385723;fill-opacity:1;fill-rule:evenodd;stroke:none;stroke-width:0.860925"
     id="path215" /><path
     d="m 401.3397,188.51726 21.2735,-21.27351 v 91.54238 l -21.2735,21.27351 z"
     style="fill:#2d461c;fill-opacity:1;fill-rule:evenodd;stroke:none;stroke-width:0.860925"
     id="path217" /><path
     d="m 395.1325,188.51726 21.2735,-21.27351 h 6.2072 l -21.2735,21.27351 z"
     style="fill:#5f784e;fill-opacity:1;fill-rule:evenodd;stroke:none;stroke-width:0.860925"
     id="path219" /><path
     d="m 403.8106,279.85302 h 6.2277 v -91.35298 h -6.2277 z"
     style="fill:#ffff00;fill-opacity:1;fill-rule:evenodd;stroke:none;stroke-width:0.860925"
     id="path221" /><path
     d="m 410.0351,188.50004 21.3596,-21.3596 v 91.35298 l -21.3596,21.3596 z"
     style="fill:#cdcd00;fill-opacity:1;fill-rule:evenodd;stroke:none;stroke-width:0.860925"
     id="path223" /><path
     d="m 403.8106,188.50004 21.3596,-21.3596 h 6.2245 l -21.3596,21.3596 z"
     style="fill:#ffff32;fill-opacity:1;fill-rule:evenodd;stroke:none;stroke-width:0.860925"
     id="path225" /><path
     d="m 431.3947,280.05964 h 6.2044 v -91.54238 h -6.2044 z"
     style="fill:#385723;fill-opacity:1;fill-rule:evenodd;stroke:none;stroke-width:0.860925"
     id="path227" /><path
     d="m 437.602,188.51726 21.2735,-21.27351 v 91.54238 l -21.2735,21.27351 z"
     style="fill:#2d461c;fill-opacity:1;fill-rule:evenodd;stroke:none;stroke-width:0.860925"
     id="path229" /><path
     d="m 431.3947,188.51726 21.2735,-21.27351 h 6.2073 l -21.2735,21.27351 z"
     style="fill:#5f784e;fill-opacity:1;fill-rule:evenodd;stroke:none;stroke-width:0.860925"
     id="path231" /><path
     d="m 440.0728,279.85302 h 6.2044 v -91.43907 h -6.2044 z"
     style="fill:#ffff00;fill-opacity:1;fill-rule:evenodd;stroke:none;stroke-width:0.860925"
     id="path233" /><path
     d="m 446.2801,188.41395 21.2735,-21.27351 v 91.43907 l -21.2735,21.27351 z"
     style="fill:#cdcd00;fill-opacity:1;fill-rule:evenodd;stroke:none;stroke-width:0.860925"
     id="path235" /><path
     d="m 440.0728,188.41395 21.2736,-21.27351 h 6.2072 l -21.2735,21.27351 z"
     style="fill:#ffff32;fill-opacity:1;fill-rule:evenodd;stroke:none;stroke-width:0.860925"
     id="path237" /><path
     d="m 547.3099,126.19474 c 0,-19.37946 15.7119,-35.091388 35.0914,-35.091388 H 745.9086 C 765.288,91.103352 781,106.81528 781,126.19474 V 266.5603 c 0,19.37948 -15.712,35.0914 -35.0914,35.0914 H 582.4013 c -19.3795,0 -35.0914,-15.71192 -35.0914,-35.0914 z"
     style="fill:#fbe5d6;fill-opacity:1;fill-rule:evenodd;stroke:none;stroke-width:0.860925"
     id="path239" /><path
     d="m 337.2781,244.93382 h 124.602 v 3.92582 h -124.602 z m 122.6391,-3.92583 11.7775,5.88874 -11.7775,5.88874 z"
     style="fill:#c55a11;fill-opacity:1;fill-rule:nonzero;stroke:none;stroke-width:0.860925"
     id="path241" /><path
     d="m 449.1642,186.87289 h 6.2277 v -49.10212 h -6.2277 z"
     style="fill:#ed7d31;fill-opacity:1;fill-rule:evenodd;stroke:none;stroke-width:0.860925"
     id="path243" /><path
     d="m 455.3887,137.77421 21.3596,-21.3596 v 49.09868 l -21.3596,21.3596 z"
     style="fill:#bf6427;fill-opacity:1;fill-rule:evenodd;stroke:none;stroke-width:0.860925"
     id="path245" /><path
     d="m 449.1642,137.77421 21.3596,-21.3596 h 6.2245 l -21.3596,21.3596 z"
     style="fill:#f19659;fill-opacity:1;fill-rule:evenodd;stroke:none;stroke-width:0.860925"
     id="path247" /><path
     d="m 416.1046,186.35633 h 6.2043 v -49.07887 h -6.2043 z"
     style="fill:#ed7d31;fill-opacity:1;fill-rule:evenodd;stroke:none;stroke-width:0.860925"
     id="path249" /><path
     d="m 422.3119,137.27488 21.2735,-21.27352 v 49.08147 l -21.2735,21.2735 z"
     style="fill:#bf6427;fill-opacity:1;fill-rule:evenodd;stroke:none;stroke-width:0.860925"
     id="path251" /><path
     d="m 416.1046,137.27488 21.2736,-21.27352 h 6.2072 l -21.2735,21.27352 z"
     style="fill:#f19659;fill-opacity:1;fill-rule:evenodd;stroke:none;stroke-width:0.860925"
     id="path253" /><path
     d="m 376.3298,186.35633 h 6.2043 v -49.07887 h -6.2043 z"
     style="fill:#ed7d31;fill-opacity:1;fill-rule:evenodd;stroke:none;stroke-width:0.860925"
     id="path255" /><path
     d="m 382.5371,137.27488 21.2735,-21.27352 v 49.08147 l -21.2735,21.2735 z"
     style="fill:#bf6427;fill-opacity:1;fill-rule:evenodd;stroke:none;stroke-width:0.860925"
     id="path257" /><path
     d="m 376.3298,137.27488 21.2735,-21.27352 h 6.2073 l -21.2735,21.27352 z"
     style="fill:#f19659;fill-opacity:1;fill-rule:evenodd;stroke:none;stroke-width:0.860925"
     id="path259" /><path
     d="m 340.3775,186.87289 h 6.2043 V 137.6907 h -6.2043 z"
     style="fill:#ed7d31;fill-opacity:1;fill-rule:evenodd;stroke:none;stroke-width:0.860925"
     id="path261" /><path
     d="m 346.5847,137.68812 21.2736,-21.27351 v 49.18477 l -21.2736,21.27351 z"
     style="fill:#bf6427;fill-opacity:1;fill-rule:evenodd;stroke:none;stroke-width:0.860925"
     id="path263" /><path
     d="m 340.3775,137.68812 21.2735,-21.27351 h 6.2073 l -21.2736,21.27351 z"
     style="fill:#f19659;fill-opacity:1;fill-rule:evenodd;stroke:none;stroke-width:0.860925"
     id="path265" /><path
     d="m 467.5881,214.80998 -88.0556,-0.0344 v -3.92583 l 88.0556,0.0344 z m -86.0927,3.89138 -11.7775,-5.89735 11.7775,-5.88013 z"
     style="fill:#c55a11;fill-opacity:1;fill-rule:nonzero;stroke:none;stroke-width:0.860925"
     id="path339" /><path
     d="m 591.4238,280.5762 h 6.2278 v -91.45629 h -6.2278 z"
     style="fill:#385723;fill-opacity:1;fill-rule:evenodd;stroke:none;stroke-width:0.860925"
     id="path341" /><path
     d="m 597.6483,189.11991 21.3596,-21.3596 v 91.45629 l -21.3596,21.3596 z"
     style="fill:#2d461c;fill-opacity:1;fill-rule:evenodd;stroke:none;stroke-width:0.860925"
     id="path343" /><path
     d="m 591.4238,189.11991 21.3596,-21.3596 h 6.2245 l -21.3596,21.3596 z"
     style="fill:#5f784e;fill-opacity:1;fill-rule:evenodd;stroke:none;stroke-width:0.860925"
     id="path345" /><path
     d="m 600.2053,280.47289 h 6.2044 v -91.54238 h -6.2044 z"
     style="fill:#ffff00;fill-opacity:1;fill-rule:evenodd;stroke:none;stroke-width:0.860925"
     id="path347" /><path
     d="m 606.4126,188.93051 21.2735,-21.27352 v 91.54239 l -21.2735,21.27351 z"
     style="fill:#cdcd00;fill-opacity:1;fill-rule:evenodd;stroke:none;stroke-width:0.860925"
     id="path349" /><path
     d="m 600.2053,188.93051 21.2735,-21.27352 h 6.2073 l -21.2735,21.27352 z"
     style="fill:#ffff32;fill-opacity:1;fill-rule:evenodd;stroke:none;stroke-width:0.860925"
     id="path351" /><path
     d="m 627.6861,280.5762 h 6.2044 v -91.43907 h -6.2044 z"
     style="fill:#385723;fill-opacity:1;fill-rule:evenodd;stroke:none;stroke-width:0.860925"
     id="path353" /><path
     d="m 633.8934,189.13713 21.2735,-21.27351 v 91.43907 l -21.2735,21.27351 z"
     style="fill:#2d461c;fill-opacity:1;fill-rule:evenodd;stroke:none;stroke-width:0.860925"
     id="path355" /><path
     d="m 627.6861,189.13713 21.2735,-21.27351 h 6.2073 l -21.2735,21.27351 z"
     style="fill:#5f784e;fill-opacity:1;fill-rule:evenodd;stroke:none;stroke-width:0.860925"
     id="path357" /><path
     d="m 636.3642,280.47289 h 6.2045 v -91.54238 h -6.2045 z"
     style="fill:#ffff00;fill-opacity:1;fill-rule:evenodd;stroke:none;stroke-width:0.860925"
     id="path359" /><path
     d="m 642.5715,188.93051 21.2735,-21.27352 v 91.54239 l -21.2735,21.27351 z"
     style="fill:#cdcd00;fill-opacity:1;fill-rule:evenodd;stroke:none;stroke-width:0.860925"
     id="path361" /><path
     d="m 636.3642,188.93051 21.2736,-21.27352 h 6.2072 l -21.2735,21.27352 z"
     style="fill:#ffff32;fill-opacity:1;fill-rule:evenodd;stroke:none;stroke-width:0.860925"
     id="path363" /><path
     d="m 663.845,280.5762 h 6.2045 v -91.54238 h -6.2045 z"
     style="fill:#385723;fill-opacity:1;fill-rule:evenodd;stroke:none;stroke-width:0.860925"
     id="path365" /><path
     d="m 670.0523,189.03382 21.2735,-21.27351 v 91.54238 l -21.2735,21.27351 z"
     style="fill:#2d461c;fill-opacity:1;fill-rule:evenodd;stroke:none;stroke-width:0.860925"
     id="path367" /><path
     d="m 663.845,189.03382 21.2736,-21.27351 h 6.2072 l -21.2735,21.27351 z"
     style="fill:#5f784e;fill-opacity:1;fill-rule:evenodd;stroke:none;stroke-width:0.860925"
     id="path369" /><path
     d="m 672.5232,280.47289 h 6.2278 V 189.0166 h -6.2278 z"
     style="fill:#ffff00;fill-opacity:1;fill-rule:evenodd;stroke:none;stroke-width:0.860925"
     id="path371" /><path
     d="m 678.7477,189.0166 21.3596,-21.35961 v 91.4563 l -21.3596,21.3596 z"
     style="fill:#cdcd00;fill-opacity:1;fill-rule:evenodd;stroke:none;stroke-width:0.860925"
     id="path373" /><path
     d="m 672.5232,189.0166 21.3596,-21.35961 h 6.2245 l -21.3596,21.35961 z"
     style="fill:#ffff32;fill-opacity:1;fill-rule:evenodd;stroke:none;stroke-width:0.860925"
     id="path375" /><path
     d="m 700.1073,280.5762 h 6.2044 v -91.54238 h -6.2044 z"
     style="fill:#385723;fill-opacity:1;fill-rule:evenodd;stroke:none;stroke-width:0.860925"
     id="path377" /><path
     d="m 706.3145,189.03382 21.2736,-21.27351 v 91.54238 l -21.2736,21.27351 z"
     style="fill:#2d461c;fill-opacity:1;fill-rule:evenodd;stroke:none;stroke-width:0.860925"
     id="path379" /><path
     d="m 700.1073,189.03382 21.2735,-21.27351 h 6.2073 l -21.2736,21.27351 z"
     style="fill:#5f784e;fill-opacity:1;fill-rule:evenodd;stroke:none;stroke-width:0.860925"
     id="path381" /><path
     d="m 708.7854,280.47289 h 6.2045 v -91.54238 h -6.2045 z"
     style="fill:#ffff00;fill-opacity:1;fill-rule:evenodd;stroke:none;stroke-width:0.860925"
     id="path383" /><path
     d="m 714.9927,188.93051 21.2735,-21.27352 v 91.54239 l -21.2735,21.27351 z"
     style="fill:#cdcd00;fill-opacity:1;fill-rule:evenodd;stroke:none;stroke-width:0.860925"
     id="path385" /><path
     d="m 708.7854,188.93051 21.2735,-21.27352 h 6.2073 l -21.2735,21.27352 z"
     style="fill:#ffff32;fill-opacity:1;fill-rule:evenodd;stroke:none;stroke-width:0.860925"
     id="path387" /><path
     d="m 610.4331,187.07951 h 6.2277 V 138.0807 h -6.2277 z"
     style="fill:#ed7d31;fill-opacity:1;fill-rule:evenodd;stroke:none;stroke-width:0.860925"
     id="path389" /><path
     d="m 616.6576,138.08415 21.3596,-21.35961 v 48.99537 l -21.3596,21.3596 z"
     style="fill:#bf6427;fill-opacity:1;fill-rule:evenodd;stroke:none;stroke-width:0.860925"
     id="path391" /><path
     d="m 610.4331,138.08415 21.3596,-21.35961 h 6.2245 l -21.3596,21.35961 z"
     style="fill:#f19659;fill-opacity:1;fill-rule:evenodd;stroke:none;stroke-width:0.860925"
     id="path393" /><path
     d="m 601.0318,248.85964 h 34.704 v -3.92582 h -34.704 z m 32.7411,3.92583 11.7775,-5.88874 -11.7775,-5.88874 z"
     style="fill:#c55a11;fill-opacity:1;fill-rule:nonzero;stroke:none;stroke-width:0.860925"
     id="path395" /><path
     d="m 645.5504,210.8411 h -34.704 v 3.92583 h 34.704 z m -32.7411,-3.92583 -11.7775,5.88874 11.7775,5.88875 z"
     style="fill:#c55a11;fill-opacity:1;fill-rule:nonzero;stroke:none;stroke-width:0.860925"
     id="path397" /><g
     id="g399"
     transform="matrix(1.1192053,0,0,-1.1192053,-148.06068,550.71615)"><g
       id="g401"
       clip-path="url(#clipPath405)"><text
         xml:space="preserve"
         transform="matrix(1,0,0,-1,415.42,425.04)"
         style="font-variant:normal;font-weight:bold;font-size:18px;font-family:Candara;-inkscape-font-specification:Candara-Bold;writing-mode:lr-tb;fill:#000000;fill-opacity:1;fill-rule:nonzero;stroke:none"
         id="text409"><tspan
           x="0 9.9359999 22.535999 32.543999 45.09 48.689999 61.236 70.973999 77.508003 86.723999 93.653999"
           y="0"
           sodipodi:role="line"
           id="tspan407"
           style="font-style:normal;font-variant:normal;font-weight:bold;font-stretch:normal;font-family:Calibri;-inkscape-font-specification:'Calibri Bold'">YOPO Outer </tspan></text></g></g><g
     id="g411"
     transform="matrix(1.1192053,0,0,-1.1192053,-146.82679,550.76269)"><g
       id="g413"
       clip-path="url(#clipPath417)"><text
         xml:space="preserve"
         transform="matrix(1,0,0,-1,512.86,425.04)"
         style="font-variant:normal;font-weight:bold;font-size:18px;font-family:Candara;-inkscape-font-specification:Candara-Bold;writing-mode:lr-tb;fill:#000000;fill-opacity:1;fill-rule:nonzero;stroke:none"
         id="text421"><tspan
           x="0 5.0219998 11.556 20.771999 27.702 36.576 43.110001 47.501999 57.563999"
           y="0"
           sodipodi:role="line"
           id="tspan419"
           style="font-style:normal;font-variant:normal;font-weight:bold;font-stretch:normal;font-family:Calibri;-inkscape-font-specification:'Calibri Bold'">Iteration</tspan></text></g></g><g
     id="g423"
     transform="matrix(0.86092713,0,0,-0.86092713,-28.65032,439.46891)"><g
       id="g425"
       clip-path="url(#clipPath429)"><text
         xml:space="preserve"
         transform="scale(1,-1)"
         style="font-variant:normal;font-weight:bold;font-size:23.4px;font-family:Candara;-inkscape-font-specification:Candara-Bold;writing-mode:lr-tb;fill:#000000;fill-opacity:1;fill-rule:nonzero;stroke:none;stroke-width:1.3"
         id="text433"
         x="713.02185"
         y="-422.20404"><tspan
           x="713.02185 725.93866 742.31866 755.3291 771.63885 776.31885 782.84747 795.71747 808.44708 820.42786 829.43689"
           y="-422.20404"
           sodipodi:role="line"
           id="tspan431"
           style="stroke-width:1.3"><tspan
   style="font-style:normal;font-variant:normal;font-weight:bold;font-stretch:normal;font-family:Calibri;-inkscape-font-specification:'Calibri Bold';stroke-width:1.3"
   id="tspan1401">YOPO</tspan> <tspan
   style="font-style:normal;font-variant:normal;font-weight:bold;font-stretch:normal;font-family:Calibri;-inkscape-font-specification:'Calibri Bold';stroke-width:1.3"
   id="tspan1403">Inner</tspan> </tspan></text></g></g><g
     id="g435"
     transform="matrix(1.1192053,0,0,-1.1192053,-227.13707,550.47084)"><g
       id="g437"
       clip-path="url(#clipPath441)"><text
         xml:space="preserve"
         transform="matrix(1,0,0,-1,819.98,423.91)"
         style="font-variant:normal;font-weight:bold;font-size:18px;font-family:Candara;-inkscape-font-specification:Candara-Bold;writing-mode:lr-tb;fill:#000000;fill-opacity:1;fill-rule:nonzero;stroke:none"
         id="text445"><tspan
           x="0 5.0219998 11.556 20.771999 27.702 36.576 43.110001 47.501999 57.563999"
           y="0"
           sodipodi:role="line"
           id="tspan443"
           style="font-style:normal;font-variant:normal;font-weight:bold;font-stretch:normal;font-family:Calibri;-inkscape-font-specification:'Calibri Bold'">Iteration</tspan></text></g></g><path
     d="m 359.4901,145.16097 h 240.3536 v -7.77417 l 15.5484,15.54834 -15.5484,15.54834 v -7.77417 H 359.4901 l 7.7741,-7.77417 z"
     style="fill:#ffc000;fill-opacity:1;fill-rule:evenodd;stroke:none;stroke-width:0.860925"
     id="path447" /><g
     id="g449"
     transform="matrix(0.86092713,0,0,-0.86092713,-28.65032,439.46891)"><g
       id="g451"
       clip-path="url(#clipPath455)"><text
         xml:space="preserve"
         transform="matrix(1,0,0,-1,581.02,326.78)"
         style="font-variant:normal;font-weight:bold;font-size:18px;font-family:Candara;-inkscape-font-specification:Candara-Bold;writing-mode:lr-tb;fill:#ffffff;fill-opacity:1;fill-rule:nonzero;stroke:none"
         id="text459"><tspan
           x="0 8.0100002 18.072001 28.152"
           y="0"
           sodipodi:role="line"
           id="tspan457">copy</tspan></text></g></g><path
     d="M 1,125.1272 C 1,105.76494 16.69556,90.070242 36.05782,90.070242 H 199.6331 c 19.3622,0 35.057,15.694698 35.057,35.056958 v 140.22781 c 0,19.36225 -15.6948,35.05695 -35.057,35.05695 H 36.05782 C 16.69556,300.41196 1,284.71726 1,265.35501 Z"
     style="fill:#3ce6d0;fill-opacity:0.2902;fill-rule:evenodd;stroke:none;stroke-width:0.860925"
     id="path497" /><path
     d="m 30.3404,280.36958 h 6.69414 V 190.40269 H 30.3404 Z"
     style="fill:#385723;fill-opacity:1;fill-rule:evenodd;stroke:none;stroke-width:0.860925"
     id="path499" /><path
     d="m 37.03497,190.40269 22.95576,-22.95232 v 89.96689 l -22.95576,22.95232 z"
     style="fill:#2d461c;fill-opacity:1;fill-rule:evenodd;stroke:none;stroke-width:0.860925"
     id="path501" /><path
     d="m 30.3404,190.40269 22.95576,-22.95232 h 6.69457 l -22.95576,22.95232 z"
     style="fill:#5f784e;fill-opacity:1;fill-rule:evenodd;stroke:none;stroke-width:0.860925"
     id="path503" /><path
     d="m 39.74172,280.26627 h 6.69509 v -90.06159 h -6.69509 z"
     style="fill:#ffff00;fill-opacity:1;fill-rule:evenodd;stroke:none;stroke-width:0.860925"
     id="path505" /><path
     d="m 46.43716,190.20468 22.95489,-22.96093 v 90.06159 l -22.95489,22.96093 z"
     style="fill:#cdcd00;fill-opacity:1;fill-rule:evenodd;stroke:none;stroke-width:0.860925"
     id="path507" /><path
     d="m 39.74172,190.20468 22.96093,-22.96093 h 6.6894 l -22.95489,22.96093 z"
     style="fill:#ffff32;fill-opacity:1;fill-rule:evenodd;stroke:none;stroke-width:0.860925"
     id="path509" /><path
     d="M 69.39205,280.36958 H 76.0862 V 190.40269 H 69.39205 Z"
     style="fill:#385723;fill-opacity:1;fill-rule:evenodd;stroke:none;stroke-width:0.860925"
     id="path511" /><path
     d="m 76.09007,190.40269 22.95231,-22.95232 v 89.96689 l -22.95231,22.95232 z"
     style="fill:#2d461c;fill-opacity:1;fill-rule:evenodd;stroke:none;stroke-width:0.860925"
     id="path513" /><path
     d="m 69.39205,190.40269 22.95232,-22.95232 h 6.69801 l -22.95231,22.95232 z"
     style="fill:#5f784e;fill-opacity:1;fill-rule:evenodd;stroke:none;stroke-width:0.860925"
     id="path515" /><path
     d="m 78.79338,280.26627 h 6.69414 v -89.96689 h -6.69414 z"
     style="fill:#ffff00;fill-opacity:1;fill-rule:evenodd;stroke:none;stroke-width:0.860925"
     id="path517" /><path
     d="m 85.4914,190.29938 22.95231,-22.95232 v 89.96689 L 85.4914,280.26627 Z"
     style="fill:#cdcd00;fill-opacity:1;fill-rule:evenodd;stroke:none;stroke-width:0.860925"
     id="path519" /><path
     d="m 78.79338,190.29938 22.95234,-22.95232 h 6.69799 L 85.4914,190.29938 Z"
     style="fill:#ffff32;fill-opacity:1;fill-rule:evenodd;stroke:none;stroke-width:0.860925"
     id="path521" /><path
     d="m 108.44371,280.36958 h 6.69412 v -89.96689 h -6.69412 z"
     style="fill:#385723;fill-opacity:1;fill-rule:evenodd;stroke:none;stroke-width:0.860925"
     id="path523" /><path
     d="m 115.1417,190.40269 22.95234,-22.95232 v 89.96689 l -22.95234,22.95232 z"
     style="fill:#2d461c;fill-opacity:1;fill-rule:evenodd;stroke:none;stroke-width:0.860925"
     id="path525" /><path
     d="m 108.44371,190.40269 22.95234,-22.95232 h 6.69799 l -22.95234,22.95232 z"
     style="fill:#5f784e;fill-opacity:1;fill-rule:evenodd;stroke:none;stroke-width:0.860925"
     id="path527" /><path
     d="m 117.84503,280.26627 h 6.69509 v -90.06159 h -6.69509 z"
     style="fill:#ffff00;fill-opacity:1;fill-rule:evenodd;stroke:none;stroke-width:0.860925"
     id="path529" /><path
     d="m 124.54302,190.20468 22.95234,-22.96093 v 90.06159 l -22.95234,22.96093 z"
     style="fill:#cdcd00;fill-opacity:1;fill-rule:evenodd;stroke:none;stroke-width:0.860925"
     id="path531" /><path
     d="m 117.84503,190.20468 22.96093,-22.96093 h 6.6894 l -22.95234,22.96093 z"
     style="fill:#ffff32;fill-opacity:1;fill-rule:evenodd;stroke:none;stroke-width:0.860925"
     id="path533" /><path
     d="m 147.49536,280.36958 h 6.71754 v -89.8808 h -6.71754 z"
     style="fill:#385723;fill-opacity:1;fill-rule:evenodd;stroke:none;stroke-width:0.860925"
     id="path535" /><path
     d="m 154.2106,190.48878 23.0384,-23.03841 v 89.8808 l -23.0384,23.03841 z"
     style="fill:#2d461c;fill-opacity:1;fill-rule:evenodd;stroke:none;stroke-width:0.860925"
     id="path537" /><path
     d="m 147.49536,190.48878 23.03844,-23.03841 h 6.7152 l -23.0384,23.03841 z"
     style="fill:#5f784e;fill-opacity:1;fill-rule:evenodd;stroke:none;stroke-width:0.860925"
     id="path539" /><path
     d="m 156.8967,280.26627 h 6.7175 v -89.98411 h -6.7175 z"
     style="fill:#ffff00;fill-opacity:1;fill-rule:evenodd;stroke:none;stroke-width:0.860925"
     id="path541" /><path
     d="m 163.6119,190.28216 23.0384,-23.03841 v 89.9841 l -23.0384,23.03842 z"
     style="fill:#cdcd00;fill-opacity:1;fill-rule:evenodd;stroke:none;stroke-width:0.860925"
     id="path543" /><path
     d="m 156.8967,190.28216 23.0384,-23.03841 h 6.7152 l -23.0384,23.03841 z"
     style="fill:#ffff32;fill-opacity:1;fill-rule:evenodd;stroke:none;stroke-width:0.860925"
     id="path545" /><path
     d="M 45.52715,245.03713 H 180.1675 v 3.92582 H 45.52715 Z m 132.67745,-3.92583 11.7775,5.88874 -11.7775,5.88874 z"
     style="fill:#c55a11;fill-opacity:1;fill-rule:nonzero;stroke:none;stroke-width:0.860925"
     id="path547" /><path
     d="m 164.5417,186.56295 h 6.6941 v -49.2588 h -6.6941 z"
     style="fill:#ed7d31;fill-opacity:1;fill-rule:evenodd;stroke:none;stroke-width:0.860925"
     id="path549" /><path
     d="m 171.2397,137.3007 22.9524,-22.95232 v 49.26226 l -22.9524,22.95231 z"
     style="fill:#bf6427;fill-opacity:1;fill-rule:evenodd;stroke:none;stroke-width:0.860925"
     id="path551" /><path
     d="m 164.5417,137.3007 22.9524,-22.95232 h 6.698 l -22.9524,22.95232 z"
     style="fill:#f19659;fill-opacity:1;fill-rule:evenodd;stroke:none;stroke-width:0.860925"
     id="path553" /><path
     d="m 126.52318,186.66627 h 6.69412 v -49.25881 h -6.69412 z"
     style="fill:#ed7d31;fill-opacity:1;fill-rule:evenodd;stroke:none;stroke-width:0.860925"
     id="path555" /><path
     d="M 133.22117,137.40402 156.1735,114.4517 v 49.26225 l -22.95233,22.95232 z"
     style="fill:#bf6427;fill-opacity:1;fill-rule:evenodd;stroke:none;stroke-width:0.860925"
     id="path557" /><path
     d="m 126.52318,137.40402 22.95234,-22.95232 h 6.69798 l -22.95233,22.95232 z"
     style="fill:#f19659;fill-opacity:1;fill-rule:evenodd;stroke:none;stroke-width:0.860925"
     id="path559" /><path
     d="m 86.74834,186.56295 h 6.69415 v -49.2588 h -6.69415 z"
     style="fill:#ed7d31;fill-opacity:1;fill-rule:evenodd;stroke:none;stroke-width:0.860925"
     id="path561" /><path
     d="m 93.44636,137.3007 22.95232,-22.95232 v 49.26226 l -22.95232,22.95231 z"
     style="fill:#bf6427;fill-opacity:1;fill-rule:evenodd;stroke:none;stroke-width:0.860925"
     id="path563" /><path
     d="m 86.74834,137.3007 22.95234,-22.95232 h 6.698 L 93.44636,137.3007 Z"
     style="fill:#f19659;fill-opacity:1;fill-rule:evenodd;stroke:none;stroke-width:0.860925"
     id="path565" /><path
     d="m 47.07682,186.56295 h 6.69414 v -49.2588 h -6.69414 z"
     style="fill:#ed7d31;fill-opacity:1;fill-rule:evenodd;stroke:none;stroke-width:0.860925"
     id="path567" /><path
     d="m 53.77139,137.3007 22.95576,-22.95232 v 49.26226 l -22.95576,22.95231 z"
     style="fill:#bf6427;fill-opacity:1;fill-rule:evenodd;stroke:none;stroke-width:0.860925"
     id="path569" /><path
     d="m 47.07682,137.3007 22.95232,-22.95232 h 6.69801 L 53.77139,137.3007 Z"
     style="fill:#f19659;fill-opacity:1;fill-rule:evenodd;stroke:none;stroke-width:0.860925"
     id="path571" /><path
     d="M 186.5728,210.32454 H 54.92848 v 3.92583 H 186.5728 Z m -129.68141,-3.92582 -11.77748,5.88874 11.77748,5.88874 z"
     style="fill:#c55a11;fill-opacity:1;fill-rule:nonzero;stroke:none;stroke-width:0.860925"
     id="path645" /><g
     id="g647"
     transform="matrix(1.1192053,0,0,-1.1192053,-62.781125,550.64807)"><g
       id="g649"
       clip-path="url(#clipPath653)"><text
         xml:space="preserve"
         transform="matrix(1,0,0,-1,75.696,424.46)"
         style="font-variant:normal;font-weight:bold;font-size:18px;font-family:Candara;-inkscape-font-specification:Candara-Bold;writing-mode:lr-tb;fill:#000000;fill-opacity:1;fill-rule:nonzero;stroke:none"
         id="text657"><tspan
           x="0 10.008 21.114 32.723999 36.702 47.987999 57.924 65.610001 70.146004 74.052002 82.764 89.694 98.585999 103.068"
           y="0"
           sodipodi:role="line"
           id="tspan655"
           style="font-style:normal;font-variant:normal;font-weight:bold;font-stretch:normal;font-family:Calibri;-inkscape-font-specification:'Calibri Bold'">PGD Adv. Train</tspan></text></g></g><g
     id="g659"
     transform="matrix(1.1192053,0,0,-1.1192053,-62.105465,550.61289)"><g
       id="g661"
       clip-path="url(#clipPath665)"><text
         xml:space="preserve"
         transform="matrix(1,0,0,-1,192.58,424.46)"
         style="font-variant:normal;font-weight:bold;font-size:18px;font-family:Candara;-inkscape-font-specification:Candara-Bold;writing-mode:lr-tb;fill:#000000;fill-opacity:1;fill-rule:nonzero;stroke:none"
         id="text669"><tspan
           x="0 5.0219998 11.556 20.771999 27.702 36.576 43.110001 47.501999 57.563999"
           y="0"
           sodipodi:role="line"
           id="tspan667"
           style="font-style:normal;font-variant:normal;font-weight:bold;font-stretch:normal;font-family:Calibri;-inkscape-font-specification:'Calibri Bold'">Iteration</tspan></text></g></g><path
     d="m 44.39073,329.21858 c 0,-4.78675 3.87762,-8.66092 8.66093,-8.66092 H 168.898 c 4.7868,0 8.6609,3.87417 8.6609,8.66092 v 34.64371 c 0,4.78331 -3.8741,8.66093 -8.6609,8.66093 H 53.05166 c -4.78331,0 -8.66093,-3.87762 -8.66093,-8.66093 z"
     style="fill:#3ce6d0;fill-opacity:1;fill-rule:evenodd;stroke:none;stroke-width:0.860925"
     id="path671" /><path
     d="m 44.39073,329.21858 c 0,-4.78675 3.87762,-8.66092 8.66093,-8.66092 H 168.898 c 4.7868,0 8.6609,3.87417 8.6609,8.66092 v 34.64371 c 0,4.78331 -3.8741,8.66093 -8.6609,8.66093 H 53.05166 c -4.78331,0 -8.66093,-3.87762 -8.66093,-8.66093 z"
     style="fill:none;stroke:#ffffff;stroke-width:0.82649;stroke-linecap:butt;stroke-linejoin:miter;stroke-miterlimit:10;stroke-dasharray:none;stroke-opacity:1"
     id="path673" /><g
     id="g675"
     transform="matrix(0.86092713,0,0,-0.86092713,-28.65032,439.46891)"><g
       id="g677"
       clip-path="url(#clipPath681)"><text
         xml:space="preserve"
         transform="matrix(1,0,0,-1,108.72,101.16)"
         style="font-variant:normal;font-weight:bold;font-size:24px;font-family:Calibri;-inkscape-font-specification:Calibri-Bold;writing-mode:lr-tb;fill:#ffffff;fill-opacity:1;fill-rule:nonzero;stroke:none"
         id="text685"><tspan
           x="0 10.8 23.712 32.231998 37.560001 46.080002 51.504002 59.759998 65.664001 85.176003 97.32"
           y="0"
           sodipodi:role="line"
           id="tspan683">For r times</tspan></text></g></g><g
     id="g723"
     transform="matrix(0.86092713,0,0,-0.86092713,-28.65032,439.46891)"><g
       id="g725"
       clip-path="url(#clipPath729)"><path
         d="m 906.36,102.96 c 0,-6.031 -1.45,-10.92 -3.23,-10.92 H 637.38 c -1.79,0 -3.23,-4.889 -3.23,-10.92 0,6.031 -1.45,10.92 -3.23,10.92 H 368.51 c -1.78,0 -3.23,4.889 -3.23,10.92"
         style="fill:none;stroke:#5b9bd5;stroke-width:4.56;stroke-linecap:butt;stroke-linejoin:miter;stroke-miterlimit:10;stroke-dasharray:none;stroke-opacity:1"
         id="path731" /></g></g><g
     id="g733"
     transform="matrix(0.86092713,0,0,-0.86092713,-28.65032,439.46891)"><path
       d="m 324,509.28 3,-486"
       style="fill:none;stroke:#5b9bd5;stroke-width:6;stroke-linecap:butt;stroke-linejoin:miter;stroke-miterlimit:10;stroke-dasharray:48, 18, 6, 18;stroke-dashoffset:0;stroke-opacity:1"
       id="path735" /></g><path
     d="m 452.2636,390.68878 c 0,-4.78331 3.8741,-8.66093 8.6609,-8.66093 h 115.8464 c 4.7867,0 8.6609,3.87762 8.6609,8.66093 v 34.64371 c 0,4.78331 -3.8742,8.66093 -8.6609,8.66093 H 460.9245 c -4.7868,0 -8.6609,-3.87762 -8.6609,-8.66093 z"
     style="fill:#2e75b6;fill-opacity:1;fill-rule:evenodd;stroke:none;stroke-width:0.860925"
     id="path737" /><path
     d="m 452.2636,390.68878 c 0,-4.78331 3.8741,-8.66093 8.6609,-8.66093 h 115.8464 c 4.7867,0 8.6609,3.87762 8.6609,8.66093 v 34.64371 c 0,4.78331 -3.8742,8.66093 -8.6609,8.66093 H 460.9245 c -4.7868,0 -8.6609,-3.87762 -8.6609,-8.66093 z"
     style="fill:none;stroke:#ffffff;stroke-width:0.82649;stroke-linecap:butt;stroke-linejoin:miter;stroke-miterlimit:10;stroke-dasharray:none;stroke-opacity:1"
     id="path739" /><g
     id="g741"
     transform="matrix(0.86092713,0,0,-0.86092713,-28.65032,439.46891)"><g
       id="g743"
       clip-path="url(#clipPath747)"><text
         xml:space="preserve"
         transform="matrix(1,0,0,-1,576.94,29.712)"
         style="font-variant:normal;font-weight:bold;font-size:24px;font-family:Calibri;-inkscape-font-specification:Calibri-Bold;writing-mode:lr-tb;fill:#ffffff;fill-opacity:1;fill-rule:nonzero;stroke:none"
         id="text751"><tspan
           x="0 10.8 23.712 32.231998"
           y="0"
           sodipodi:role="line"
           id="tspan749">For </tspan></text></g></g><g
     id="g753"
     transform="matrix(0.86092713,0,0,-0.86092713,-28.65032,439.46891)"><g
       id="g755"
       clip-path="url(#clipPath759)"><text
         xml:space="preserve"
         transform="matrix(1,0,0,-1,614.5,29.712)"
         style="font-variant:normal;font-weight:bold;font-size:24px;font-family:Calibri;-inkscape-font-specification:Calibri-Bold;writing-mode:lr-tb;fill:#ffffff;fill-opacity:1;fill-rule:nonzero;stroke:none"
         id="text763"><tspan
           x="0 19.584"
           y="0"
           sodipodi:role="line"
           id="tspan761">m </tspan></text></g></g><g
     id="g765"
     transform="matrix(0.86092713,0,0,-0.86092713,-28.65032,439.46891)"><g
       id="g767"
       clip-path="url(#clipPath771)"><text
         xml:space="preserve"
         transform="matrix(1,0,0,-1,639.48,29.712)"
         style="font-variant:normal;font-weight:bold;font-size:24px;font-family:Calibri;-inkscape-font-specification:Calibri-Bold;writing-mode:lr-tb;fill:#ffffff;fill-opacity:1;fill-rule:nonzero;stroke:none"
         id="text775"><tspan
           x="0 8.3280001 14.16 33.672001 45.816002"
           y="0"
           sodipodi:role="line"
           id="tspan773">times</tspan></text></g></g><path
     d="m 594.4199,312.8954 c 0,-4.78675 3.8741,-8.66092 8.6609,-8.66092 h 115.8463 c 4.7868,0 8.661,3.87417 8.661,8.66092 v 34.64371 c 0,4.78676 -3.8742,8.66093 -8.661,8.66093 H 603.0808 c -4.7868,0 -8.6609,-3.87417 -8.6609,-8.66093 z"
     style="fill:#f8cbad;fill-opacity:1;fill-rule:evenodd;stroke:none;stroke-width:0.860925"
     id="path777" /><path
     d="m 594.4199,312.8954 c 0,-4.78675 3.8741,-8.66092 8.6609,-8.66092 h 115.8463 c 4.7868,0 8.661,3.87417 8.661,8.66092 v 34.64371 c 0,4.78676 -3.8742,8.66093 -8.661,8.66093 H 603.0808 c -4.7868,0 -8.6609,-3.87417 -8.6609,-8.66093 z"
     style="fill:none;stroke:#ffffff;stroke-width:0.82649;stroke-linecap:butt;stroke-linejoin:miter;stroke-miterlimit:10;stroke-dasharray:none;stroke-opacity:1"
     id="path779" /><path
     d="m 596.8993,353.72057 h 128.106 v -46.90331 h -128.106 z"
     style="fill:#f8cbad;fill-opacity:1;fill-rule:evenodd;stroke:none;stroke-width:0.860925"
     id="path781" /><g
     id="g783"
     transform="matrix(0.86092713,0,0,-0.86092713,-28.65032,439.46891)"><g
       id="g785"
       clip-path="url(#clipPath789)"><text
         xml:space="preserve"
         transform="matrix(1,0,0,-1,745.61,120.19)"
         style="font-variant:normal;font-weight:bold;font-size:24px;font-family:Calibri;-inkscape-font-specification:Calibri-Bold;writing-mode:lr-tb;fill:#ffffff;fill-opacity:1;fill-rule:nonzero;stroke:none"
         id="text793"><tspan
           x="0 10.8 23.712 32.231998"
           y="0"
           sodipodi:role="line"
           id="tspan791">For </tspan></text></g></g><g
     id="g795"
     transform="matrix(0.86092713,0,0,-0.86092713,-28.65032,439.46891)"><g
       id="g797"
       clip-path="url(#clipPath801)"><text
         xml:space="preserve"
         transform="matrix(1,0,0,-1,783.05,120.19)"
         style="font-variant:normal;font-weight:bold;font-size:24px;font-family:Calibri;-inkscape-font-specification:Calibri-Bold;writing-mode:lr-tb;fill:#ffffff;fill-opacity:1;fill-rule:nonzero;stroke:none"
         id="text805"><tspan
           x="0 12.84"
           y="0"
           sodipodi:role="line"
           id="tspan803">n </tspan></text></g></g><g
     id="g807"
     transform="matrix(0.86092713,0,0,-0.86092713,-28.65032,439.46891)"><g
       id="g809"
       clip-path="url(#clipPath813)"><text
         xml:space="preserve"
         transform="matrix(1,0,0,-1,801.29,120.19)"
         style="font-variant:normal;font-weight:bold;font-size:24px;font-family:Calibri;-inkscape-font-specification:Calibri-Bold;writing-mode:lr-tb;fill:#ffffff;fill-opacity:1;fill-rule:nonzero;stroke:none"
         id="text817"><tspan
           x="0 8.3280001 14.232 33.743999 45.911999"
           y="0"
           sodipodi:role="line"
           id="tspan815">times</tspan></text></g></g></svg>
