<?xml version="1.0" encoding="utf-8" standalone="no"?>
<!DOCTYPE svg PUBLIC "-//W3C//DTD SVG 1.1//EN"
  "http://www.w3.org/Graphics/SVG/1.1/DTD/svg11.dtd">
<svg xmlns:xlink="http://www.w3.org/1999/xlink" width="460.8pt" height="345.6pt" viewBox="0 0 460.8 345.6" xmlns="http://www.w3.org/2000/svg" version="1.1">
 <metadata>
  <rdf:RDF xmlns:dc="http://purl.org/dc/elements/1.1/" xmlns:cc="http://creativecommons.org/ns#" xmlns:rdf="http://www.w3.org/1999/02/22-rdf-syntax-ns#">
   <cc:Work>
    <dc:type rdf:resource="http://purl.org/dc/dcmitype/StillImage"/>
    <dc:date>2022-11-16T15:40:14.401731</dc:date>
    <dc:format>image/svg+xml</dc:format>
    <dc:creator>
     <cc:Agent>
      <dc:title>Matplotlib v3.5.1, https://matplotlib.org/</dc:title>
     </cc:Agent>
    </dc:creator>
   </cc:Work>
  </rdf:RDF>
 </metadata>
 <defs>
  <style type="text/css">*{stroke-linejoin: round; stroke-linecap: butt}</style>
 </defs>
 <g id="figure_1">
  <g id="patch_1">
   <path d="M 0 345.6 
L 460.8 345.6 
L 460.8 0 
L 0 0 
z
" style="fill: #ffffff"/>
  </g>
  <g id="axes_1">
   <g id="patch_2">
    <path d="M 57.6 284.411077 
L 414.72 284.411077 
L 414.72 64.644923 
L 57.6 64.644923 
z
" style="fill: #ffffff"/>
   </g>
   <g id="PathCollection_1">
    <defs>
     <path id="m45dd1bc7e8" d="M -6.324555 6.324555 
L 6.324555 6.324555 
L 6.324555 -6.324555 
L -6.324555 -6.324555 
z
" style="stroke: #0000ff"/>
    </defs>
    <g clip-path="url(#pf835f8566a)">
     <use xlink:href="#m45dd1bc7e8" x="148.815664" y="78.878235" style="fill: #0000ff; stroke: #0000ff"/>
    </g>
   </g>
   <g id="PathCollection_2">
    <g clip-path="url(#pf835f8566a)">
     <use xlink:href="#m45dd1bc7e8" x="192.173644" y="78.878235" style="fill: #0000ff; stroke: #0000ff"/>
    </g>
   </g>
   <g id="PathCollection_3">
    <g clip-path="url(#pf835f8566a)">
     <use xlink:href="#m45dd1bc7e8" x="236.16" y="78.380308" style="fill: #0000ff; stroke: #0000ff"/>
    </g>
   </g>
   <g id="PathCollection_4">
    <g clip-path="url(#pf835f8566a)">
     <use xlink:href="#m45dd1bc7e8" x="280.774733" y="77.88238" style="fill: #0000ff; stroke: #0000ff"/>
    </g>
   </g>
   <g id="PathCollection_5">
    <g clip-path="url(#pf835f8566a)">
     <use xlink:href="#m45dd1bc7e8" x="324.761089" y="77.384453" style="fill: #0000ff; stroke: #0000ff"/>
    </g>
   </g>
   <g id="PathCollection_6">
    <defs>
     <path id="mc4e2e22427" d="M 0 6.324555 
C 1.677292 6.324555 3.286112 5.65816 4.472136 4.472136 
C 5.65816 3.286112 6.324555 1.677292 6.324555 0 
C 6.324555 -1.677292 5.65816 -3.286112 4.472136 -4.472136 
C 3.286112 -5.65816 1.677292 -6.324555 0 -6.324555 
C -1.677292 -6.324555 -3.286112 -5.65816 -4.472136 -4.472136 
C -5.65816 -3.286112 -6.324555 -1.677292 -6.324555 0 
C -6.324555 1.677292 -5.65816 3.286112 -4.472136 4.472136 
C -3.286112 5.65816 -1.677292 6.324555 0 6.324555 
z
" style="stroke: #000000; stroke-opacity: 0.9; stroke-width: 1.5"/>
    </defs>
    <g clip-path="url(#pf835f8566a)">
     <use xlink:href="#mc4e2e22427" x="243.072142" y="145.102595" style="fill: #ec84ef; fill-opacity: 0.9; stroke: #000000; stroke-opacity: 0.9; stroke-width: 1.5"/>
    </g>
   </g>
   <g id="PathCollection_7">
    <defs>
     <path id="m4d9be8cf34" d="M -2.108185 6.324555 
L 2.108185 6.324555 
L 2.108185 2.108185 
L 6.324555 2.108185 
L 6.324555 -2.108185 
L 2.108185 -2.108185 
L 2.108185 -6.324555 
L -2.108185 -6.324555 
L -2.108185 -2.108185 
L -6.324555 -2.108185 
L -6.324555 2.108185 
L -2.108185 2.108185 
z
" style="stroke: #000000; stroke-opacity: 0.9"/>
    </defs>
    <g clip-path="url(#pf835f8566a)">
     <use xlink:href="#m4d9be8cf34" x="243.027692" y="143.051077" style="fill: #ec84ef; fill-opacity: 0.9; stroke: #000000; stroke-opacity: 0.9"/>
    </g>
   </g>
   <g id="PathCollection_8">
    <g clip-path="url(#pf835f8566a)">
     <use xlink:href="#m4d9be8cf34" x="241.883077" y="148.201846" style="fill: #ec84ef; fill-opacity: 0.9; stroke: #000000; stroke-opacity: 0.9"/>
    </g>
   </g>
   <g id="PathCollection_9">
    <g clip-path="url(#pf835f8566a)">
     <use xlink:href="#m4d9be8cf34" x="242.455385" y="145.340308" style="fill: #ec84ef; fill-opacity: 0.9; stroke: #000000; stroke-opacity: 0.9"/>
    </g>
   </g>
   <g id="PathCollection_10">
    <g clip-path="url(#pf835f8566a)">
     <use xlink:href="#m4d9be8cf34" x="241.310769" y="143.051077" style="fill: #ec84ef; fill-opacity: 0.9; stroke: #000000; stroke-opacity: 0.9"/>
    </g>
   </g>
   <g id="PathCollection_11">
    <defs>
     <path id="m601be16528" d="M 0 6.324555 
C 1.677292 6.324555 3.286112 5.65816 4.472136 4.472136 
C 5.65816 3.286112 6.324555 1.677292 6.324555 0 
C 6.324555 -1.677292 5.65816 -3.286112 4.472136 -4.472136 
C 3.286112 -5.65816 1.677292 -6.324555 0 -6.324555 
C -1.677292 -6.324555 -3.286112 -5.65816 -4.472136 -4.472136 
C -5.65816 -3.286112 -6.324555 -1.677292 -6.324555 0 
C -6.324555 1.677292 -5.65816 3.286112 -4.472136 4.472136 
C -3.286112 5.65816 -1.677292 6.324555 0 6.324555 
z
" style="stroke: #000000; stroke-opacity: 0.9; stroke-width: 1.5"/>
    </defs>
    <g clip-path="url(#pf835f8566a)">
     <use xlink:href="#m601be16528" x="243.072142" y="218.29794" style="fill: #ff009f; fill-opacity: 0.9; stroke: #000000; stroke-opacity: 0.9; stroke-width: 1.5"/>
    </g>
   </g>
   <g id="PathCollection_12">
    <defs>
     <path id="m38ea09ea19" d="M -2.108185 6.324555 
L 2.108185 6.324555 
L 2.108185 2.108185 
L 6.324555 2.108185 
L 6.324555 -2.108185 
L 2.108185 -2.108185 
L 2.108185 -6.324555 
L -2.108185 -6.324555 
L -2.108185 -2.108185 
L -6.324555 -2.108185 
L -6.324555 2.108185 
L -2.108185 2.108185 
z
" style="stroke: #000000; stroke-opacity: 0.9"/>
    </defs>
    <g clip-path="url(#pf835f8566a)">
     <use xlink:href="#m38ea09ea19" x="241.310769" y="215.734154" style="fill: #ff009f; fill-opacity: 0.9; stroke: #000000; stroke-opacity: 0.9"/>
    </g>
   </g>
   <g id="PathCollection_13">
    <g clip-path="url(#pf835f8566a)">
     <use xlink:href="#m38ea09ea19" x="237.876923" y="203.143385" style="fill: #ff009f; fill-opacity: 0.9; stroke: #000000; stroke-opacity: 0.9"/>
    </g>
   </g>
   <g id="PathCollection_14">
    <g clip-path="url(#pf835f8566a)">
     <use xlink:href="#m38ea09ea19" x="239.593846" y="215.734154" style="fill: #ff009f; fill-opacity: 0.9; stroke: #000000; stroke-opacity: 0.9"/>
    </g>
   </g>
   <g id="PathCollection_15">
    <g clip-path="url(#pf835f8566a)">
     <use xlink:href="#m38ea09ea19" x="229.292308" y="224.891077" style="fill: #ff009f; fill-opacity: 0.9; stroke: #000000; stroke-opacity: 0.9"/>
    </g>
   </g>
   <g id="PathCollection_16">
    <defs>
     <path id="m79c03ae505" d="M 0 6.324555 
C 1.677292 6.324555 3.286112 5.65816 4.472136 4.472136 
C 5.65816 3.286112 6.324555 1.677292 6.324555 0 
C 6.324555 -1.677292 5.65816 -3.286112 4.472136 -4.472136 
C 3.286112 -5.65816 1.677292 -6.324555 0 -6.324555 
C -1.677292 -6.324555 -3.286112 -5.65816 -4.472136 -4.472136 
C -5.65816 -3.286112 -6.324555 -1.677292 -6.324555 0 
C -6.324555 1.677292 -5.65816 3.286112 -4.472136 4.472136 
C -3.286112 5.65816 -1.677292 6.324555 0 6.324555 
z
" style="stroke: #000000; stroke-opacity: 0.9; stroke-width: 1.5"/>
    </defs>
    <g clip-path="url(#pf835f8566a)">
     <use xlink:href="#m79c03ae505" x="147.558911" y="219.791723" style="fill: #e8ff14; fill-opacity: 0.9; stroke: #000000; stroke-opacity: 0.9; stroke-width: 1.5"/>
    </g>
   </g>
   <g id="PathCollection_17">
    <defs>
     <path id="meffea5e291" d="M -2.108185 6.324555 
L 2.108185 6.324555 
L 2.108185 2.108185 
L 6.324555 2.108185 
L 6.324555 -2.108185 
L 2.108185 -2.108185 
L 2.108185 -6.324555 
L -2.108185 -6.324555 
L -2.108185 -2.108185 
L -6.324555 -2.108185 
L -6.324555 2.108185 
L -2.108185 2.108185 
z
" style="stroke: #000000; stroke-opacity: 0.9"/>
    </defs>
    <g clip-path="url(#pf835f8566a)">
     <use xlink:href="#meffea5e291" x="130.855385" y="242.632615" style="fill: #e8ff14; fill-opacity: 0.9; stroke: #000000; stroke-opacity: 0.9"/>
    </g>
   </g>
   <g id="PathCollection_18">
    <g clip-path="url(#pf835f8566a)">
     <use xlink:href="#meffea5e291" x="131.427692" y="242.060308" style="fill: #e8ff14; fill-opacity: 0.9; stroke: #000000; stroke-opacity: 0.9"/>
    </g>
   </g>
   <g id="PathCollection_19">
    <g clip-path="url(#pf835f8566a)">
     <use xlink:href="#meffea5e291" x="152.030769" y="215.734154" style="fill: #e8ff14; fill-opacity: 0.9; stroke: #000000; stroke-opacity: 0.9"/>
    </g>
   </g>
   <g id="PathCollection_20">
    <g clip-path="url(#pf835f8566a)">
     <use xlink:href="#meffea5e291" x="135.433846" y="249.500308" style="fill: #e8ff14; fill-opacity: 0.9; stroke: #000000; stroke-opacity: 0.9"/>
    </g>
   </g>
   <g id="PathCollection_21">
    <defs>
     <path id="m726884f8be" d="M 0 6.324555 
C 1.677292 6.324555 3.286112 5.65816 4.472136 4.472136 
C 5.65816 3.286112 6.324555 1.677292 6.324555 0 
C 6.324555 -1.677292 5.65816 -3.286112 4.472136 -4.472136 
C 3.286112 -5.65816 1.677292 -6.324555 0 -6.324555 
C -1.677292 -6.324555 -3.286112 -5.65816 -4.472136 -4.472136 
C -5.65816 -3.286112 -6.324555 -1.677292 -6.324555 0 
C -6.324555 1.677292 -5.65816 3.286112 -4.472136 4.472136 
C -3.286112 5.65816 -1.677292 6.324555 0 6.324555 
z
" style="stroke: #000000; stroke-opacity: 0.9; stroke-width: 1.5"/>
    </defs>
    <g clip-path="url(#pf835f8566a)">
     <use xlink:href="#m726884f8be" x="338.585372" y="216.804158" style="fill: #6cdb00; fill-opacity: 0.9; stroke: #000000; stroke-opacity: 0.9; stroke-width: 1.5"/>
    </g>
   </g>
   <g id="PathCollection_22">
    <defs>
     <path id="m3e70c146f6" d="M -2.108185 6.324555 
L 2.108185 6.324555 
L 2.108185 2.108185 
L 6.324555 2.108185 
L 6.324555 -2.108185 
L 2.108185 -2.108185 
L 2.108185 -6.324555 
L -2.108185 -6.324555 
L -2.108185 -2.108185 
L -6.324555 -2.108185 
L -6.324555 2.108185 
L -2.108185 2.108185 
z
" style="stroke: #000000; stroke-opacity: 0.9"/>
    </defs>
    <g clip-path="url(#pf835f8566a)">
     <use xlink:href="#m3e70c146f6" x="335.741538" y="208.294154" style="fill: #6cdb00; fill-opacity: 0.9; stroke: #000000; stroke-opacity: 0.9"/>
    </g>
   </g>
   <g id="PathCollection_23">
    <g clip-path="url(#pf835f8566a)">
     <use xlink:href="#m3e70c146f6" x="334.024615" y="204.860308" style="fill: #6cdb00; fill-opacity: 0.9; stroke: #000000; stroke-opacity: 0.9"/>
    </g>
   </g>
   <g id="PathCollection_24">
    <g clip-path="url(#pf835f8566a)">
     <use xlink:href="#m3e70c146f6" x="338.030769" y="219.168" style="fill: #6cdb00; fill-opacity: 0.9; stroke: #000000; stroke-opacity: 0.9"/>
    </g>
   </g>
   <g id="matplotlib.axis_1">
    <g id="xtick_1">
     <g id="line2d_1">
      <defs>
       <path id="me905b94a4e" d="M 0 0 
L 0 3.5 
" style="stroke: #000000; stroke-width: 0.8"/>
      </defs>
      <g>
       <use xlink:href="#me905b94a4e" x="64.467692" y="284.411077" style="stroke: #000000; stroke-width: 0.8"/>
      </g>
     </g>
     <g id="text_1">
      <!-- −25 -->
      <g transform="translate(43.363005 306.607952)scale(0.2 -0.2)">
       <defs>
        <path id="DejaVuSans-2212" d="M 678 2272 
L 4684 2272 
L 4684 1741 
L 678 1741 
L 678 2272 
z
" transform="scale(0.015625)"/>
        <path id="DejaVuSans-32" d="M 1228 531 
L 3431 531 
L 3431 0 
L 469 0 
L 469 531 
Q 828 903 1448 1529 
Q 2069 2156 2228 2338 
Q 2531 2678 2651 2914 
Q 2772 3150 2772 3378 
Q 2772 3750 2511 3984 
Q 2250 4219 1831 4219 
Q 1534 4219 1204 4116 
Q 875 4013 500 3803 
L 500 4441 
Q 881 4594 1212 4672 
Q 1544 4750 1819 4750 
Q 2544 4750 2975 4387 
Q 3406 4025 3406 3419 
Q 3406 3131 3298 2873 
Q 3191 2616 2906 2266 
Q 2828 2175 2409 1742 
Q 1991 1309 1228 531 
z
" transform="scale(0.015625)"/>
        <path id="DejaVuSans-35" d="M 691 4666 
L 3169 4666 
L 3169 4134 
L 1269 4134 
L 1269 2991 
Q 1406 3038 1543 3061 
Q 1681 3084 1819 3084 
Q 2600 3084 3056 2656 
Q 3513 2228 3513 1497 
Q 3513 744 3044 326 
Q 2575 -91 1722 -91 
Q 1428 -91 1123 -41 
Q 819 9 494 109 
L 494 744 
Q 775 591 1075 516 
Q 1375 441 1709 441 
Q 2250 441 2565 725 
Q 2881 1009 2881 1497 
Q 2881 1984 2565 2268 
Q 2250 2553 1709 2553 
Q 1456 2553 1204 2497 
Q 953 2441 691 2322 
L 691 4666 
z
" transform="scale(0.015625)"/>
       </defs>
       <use xlink:href="#DejaVuSans-2212"/>
       <use xlink:href="#DejaVuSans-32" x="83.789062"/>
       <use xlink:href="#DejaVuSans-35" x="147.412109"/>
      </g>
     </g>
    </g>
    <g id="xtick_2">
     <g id="line2d_2">
      <g>
       <use xlink:href="#me905b94a4e" x="407.852308" y="284.411077" style="stroke: #000000; stroke-width: 0.8"/>
      </g>
     </g>
     <g id="text_2">
      <!-- 25 -->
      <g transform="translate(395.127308 306.607952)scale(0.2 -0.2)">
       <use xlink:href="#DejaVuSans-32"/>
       <use xlink:href="#DejaVuSans-35" x="63.623047"/>
      </g>
     </g>
    </g>
   </g>
   <g id="matplotlib.axis_2">
    <g id="ytick_1">
     <g id="line2d_3">
      <defs>
       <path id="mf0cedb7d9a" d="M 0 0 
L -3.5 0 
" style="stroke: #000000; stroke-width: 0.8"/>
      </defs>
      <g>
       <use xlink:href="#mf0cedb7d9a" x="57.6" y="250.072615" style="stroke: #000000; stroke-width: 0.8"/>
      </g>
     </g>
     <g id="text_3">
      <!-- −25 -->
      <g transform="translate(8.390625 257.671053)scale(0.2 -0.2)">
       <use xlink:href="#DejaVuSans-2212"/>
       <use xlink:href="#DejaVuSans-32" x="83.789062"/>
       <use xlink:href="#DejaVuSans-35" x="147.412109"/>
      </g>
     </g>
    </g>
    <g id="ytick_2">
     <g id="line2d_4">
      <g>
       <use xlink:href="#mf0cedb7d9a" x="57.6" y="78.380308" style="stroke: #000000; stroke-width: 0.8"/>
      </g>
     </g>
     <g id="text_4">
      <!-- 0 -->
      <g transform="translate(37.875 85.978745)scale(0.2 -0.2)">
       <defs>
        <path id="DejaVuSans-30" d="M 2034 4250 
Q 1547 4250 1301 3770 
Q 1056 3291 1056 2328 
Q 1056 1369 1301 889 
Q 1547 409 2034 409 
Q 2525 409 2770 889 
Q 3016 1369 3016 2328 
Q 3016 3291 2770 3770 
Q 2525 4250 2034 4250 
z
M 2034 4750 
Q 2819 4750 3233 4129 
Q 3647 3509 3647 2328 
Q 3647 1150 3233 529 
Q 2819 -91 2034 -91 
Q 1250 -91 836 529 
Q 422 1150 422 2328 
Q 422 3509 836 4129 
Q 1250 4750 2034 4750 
z
" transform="scale(0.015625)"/>
       </defs>
       <use xlink:href="#DejaVuSans-30"/>
      </g>
     </g>
    </g>
   </g>
   <g id="patch_3">
    <path d="M 57.6 284.411077 
L 57.6 64.644923 
" style="fill: none; stroke: #000000; stroke-width: 0.8; stroke-linejoin: miter; stroke-linecap: square"/>
   </g>
   <g id="patch_4">
    <path d="M 414.72 284.411077 
L 414.72 64.644923 
" style="fill: none; stroke: #000000; stroke-width: 0.8; stroke-linejoin: miter; stroke-linecap: square"/>
   </g>
   <g id="patch_5">
    <path d="M 57.6 284.411077 
L 414.72 284.411077 
" style="fill: none; stroke: #000000; stroke-width: 0.8; stroke-linejoin: miter; stroke-linecap: square"/>
   </g>
   <g id="patch_6">
    <path d="M 57.6 64.644923 
L 414.72 64.644923 
" style="fill: none; stroke: #000000; stroke-width: 0.8; stroke-linejoin: miter; stroke-linecap: square"/>
   </g>
  </g>
 </g>
 <defs>
  <clipPath id="pf835f8566a">
   <rect x="57.6" y="64.644923" width="357.12" height="219.766154"/>
  </clipPath>
 </defs>
</svg>
