<?xml version="1.0" encoding="UTF-8" standalone="no"?>
<svg
   enable-background="new 0 0 1920 1292"
   version="1.1"
   viewBox="0 0 1920 1292"
   id="svg199"
   sodipodi:docname="pingpong_table.svg"
   inkscape:version="1.2.1 (9c6d41e4, 2022-07-14)"
   xmlns:inkscape="http://www.inkscape.org/namespaces/inkscape"
   xmlns:sodipodi="http://sodipodi.sourceforge.net/DTD/sodipodi-0.dtd"
   xmlns="http://www.w3.org/2000/svg"
   xmlns:svg="http://www.w3.org/2000/svg">
  <defs
     id="defs203" />
  <sodipodi:namedview
     id="namedview201"
     pagecolor="#ffffff"
     bordercolor="#000000"
     borderopacity="0.25"
     inkscape:showpageshadow="2"
     inkscape:pageopacity="0.0"
     inkscape:pagecheckerboard="0"
     inkscape:deskcolor="#d1d1d1"
     showgrid="false"
     inkscape:zoom="0.32220708"
     inkscape:cx="675.03172"
     inkscape:cy="690.54969"
     inkscape:window-width="1312"
     inkscape:window-height="707"
     inkscape:window-x="0"
     inkscape:window-y="25"
     inkscape:window-maximized="0"
     inkscape:current-layer="svg199" />
  <path
     d="m1037.5 458.55c-76.55-46.33-153.1-92.67-229.65-139.01 6.22-2.79 13.18-3.25 19.76-4.88 11.68 6.41 22.92 13.59 34.43 20.31 52.39 31.27 104.77 62.57 157.16 93.85 6.91 3.87 13.43 8.52 20.57 11.94 6.59 4.73 13.87 8.38 20.72 12.72 104.89 62.55 209.64 125.33 314.59 187.76 6.63 3.94 13.04 8.4 20.01 11.7 11.4-3.22 22.52-7.47 33.82-11.07 123.35-41.28 246.69-82.6 370.05-123.86 7.0199-2.55 14.29-4.43 21.16-7.41-112.49-50.63-225.01-101.2-337.56-151.71-92.56-41.7-185.19-83.23-277.76-124.89 4.77-1.96 10.11-2.01 14.76-4.34-0.02-0.01-0.04-0.03-0.0601-0.04h0.04c0.78 0 1.4399-0.16 2.01-0.44 0.49 0.3 0.98 0.59 1.45 0.92 0.1801-0.1 0.36-0.2 0.5601-0.28l638.13 285.84c-41.08 13.44-82.05 27.26-123.1 40.8-76.96 25.29-153.76 51.11-230.76 76.26-17.48 5.91-35.05 11.55-52.5 17.54-2.4501 0.88-5.0601 1.02-7.62 1.02-4.12 0.37-7.87 2.36-11.81 3.47-199.24 66.6-398.57 132.91-597.77 199.63-0.58 0.2-1.73 0.6-2.31 0.8l-484.14-430.43c0.2 0.03 0.4 0.05 0.61 0.06-2.02-2.34-4.26-4.46-6.4-6.67 4.6-1.07 9.31-1.75 13.75-3.43 0.5 0.4 1.01 0.79 1.52 1.18 77.5 68.19 155.21 136.14 232.78 204.24 7.03 5.9 13.57 12.44 20.9 17.96 10.39 9.99 21.63 19.09 32.34 28.74 65.07 56.98 129.98 114.13 195.13 171 3.64-0.38 6.99-2.15 10.51-3.13 10.01-3.57 20.32-6.37 30.15-10.37 19.33-5.8 38.34-12.72 57.54-18.98 143.39-47.97 286.75-96.03 430.15-143.95 0.17-0.94-0.21-1.57-1.13-1.89-103.01-62.3-205.97-124.67-308.95-187-7.3-4.13-14.13-9.14-21.75-12.66-0.33-0.33-1-0.98-1.33-1.3z"
     fill="#fff"
     id="path2" />
  <path
     d="m1628.3 629.35c-2.0599 25.21-3.63 50.47-5.58 75.69-0.3101 1.19 0.05 2.7401-0.88 3.69-14.84 12.5-27.21 27.7-42.35 39.84 0.9199-29.51 2.09-59.01 3.1-88.51 0.09-4.95 0.47-9.91 0.09-14.85 6.91-3.9 14.76-5.56 22.14-8.38 7.8399-2.43 15.33-6.1 23.48-7.48z"
     fill="#2D2D2D"
     id="path4" />
  <path
     d="m1621.9 708.73c-0.17 12.15-1.61 24.24-2.34 36.36-4.2001 56.58-8.3301 113.17-12.56 169.75-10.13 6.09-22.76 5-33.5 1.24 1.48-49.68 3.55-99.35 5.23-149.03 0.26-6.16 0.3601-12.33 0.8201-18.48 15.14-12.14 27.51-27.34 42.35-39.84z"
     fill="#565656"
     id="path6" />
  <path
     d="m1561.7 652.77c-165.62 57.35-331.27 114.65-496.9 172-76.22 26.27-152.33 52.89-228.62 78.99l-0.02-2.47c0.21 0.1 0.41 0.21 0.62 0.31-0.94-15.45-0.79-30.94-1.02-46.42 0.58-0.2 1.73-0.6 2.31-0.8 199.2-66.72 398.53-133.03 597.77-199.63 3.9401-1.11 7.6901-3.1 11.81-3.47 2.5599 0 5.1699-0.14 7.62-1.02 17.45-5.99 35.02-11.63 52.5-17.54 77-25.15 153.8-50.97 230.76-76.26 41.05-13.54 82.02-27.36 123.1-40.8-0.04 10.6 0.74 21.2 0.28 31.79-1.03 0.64-2.04 1.3-3.02 1.96l1.1-0.15c-7.38 3.19-15.15 5.34-22.68 8.12-66.1 22.9-132.22 45.77-198.33 68.65-3.53 1.1899-6.98 2.71-10.67 3.3199-8.1499 1.38-15.64 5.05-23.48 7.48-7.38 2.82-15.23 4.48-22.14 8.38-6.7701 3.1-14.04 4.93-20.99 7.56z"
     fill="#7C7C7C"
     id="path8" />
  <path
     d="m1223.9 229.46c0.09 0.05 0.1801 0.1 0.27 0.15-0.21 0.05-0.42 0.13-0.61 0.21l-137.39-61.54c49.03-9.41 98.05-18.87 147.1-28.2 0.29 15.98-1.14 31.93-1.15 47.91-0.7799 13.27-0.7999 26.56-1.2799 39.85-2.3301 0.52-4.6401 1.06-6.9401 1.62z"
     fill="#A9A9A9"
     id="path10" />
  <path
     d="m1094.6 184.48c-8.99-4.06-18.03-7.99-26.91-12.28 5.1899-1.69 10.68-2.16 15.92-3.7 0.36 0.18 0.73 0.33 1.1 0.49 0.38-0.26 0.7999-0.47 1.26-0.6-0.03-0.02-0.0701-0.04-0.1001-0.05 0.1001-0.02 0.2101-0.04 0.3101-0.06l137.39 61.54c-0.2001 0.08-0.38 0.18-0.5601 0.28-0.47-0.33-0.96-0.62-1.45-0.92-0.5701 0.28-1.23 0.44-2.01 0.44h-0.04c0.02 0.01 0.04 0.03 0.0601 0.04-4.65 2.33-9.99 2.38-14.76 4.34-0.39-0.17-1.17-0.51-1.5601-0.69-36.21-16.28-72.43-32.55-108.65-48.83z"
     fill="#A9A9A9"
     id="path12"
     style="opacity:0.7" />
  <path
     d="m836.18 901.29l0.02 2.47c-1.54-1.55-3.07-3.1-4.51-4.71 1.48 0.75 2.99 1.49 4.49 2.24z"
     fill="#B5B5B5"
     id="path32" />
  <path
     d="m764.24 837.86l31.65 28.98c-0.36 51.05-0.05 102.11-0.15 153.16 0.01 74.66-0.02 149.33 0.01 223.99 0.24 3.38-4.17 4.0701-6.62 5.05-8.1 2.0399-16.37-0.54-24.02-3.12-0.38-52.97-0.06-105.95-0.16-158.92 0-82.31-0.02-164.64 0.01-246.94 0-0.84-0.29-1.55-0.72-2.2z"
     fill="#6B6B6B"
     id="path34" />
  <path
     d="m795.89 866.84l-31.65-28.98c-0.69-1.04-1.73-1.92-2.43-2.93 4.33 2.24 7.62 5.9 11.15 9.17 7.21 6.44 14.25 13.06 21.43 19.54 3.7 3.71 8.22 6.69 11.08 11.18l0.3 0.44c-3.54-2.55-6.51-5.75-9.88-8.48v0.06z"
     fill="#B5B5B5"
     id="path36" />
  <path
     d="m1022.6 180.45c14.52-2.9 29.14-5.3 43.58-8.59 0.37 0.08 1.12 0.25 1.5 0.34 8.88 4.29 17.92 8.22 26.91 12.28 36.22 16.28 72.44 32.55 108.65 48.83-7.5199 2.9-15.6 3.73-23.38 5.64-18.93 4.05-37.85 8.16-56.79 12.2-98.26 21.01-196.47 42.31-294.73 63.37-11.55-6.18-22.56-13.34-33.89-19.91-29.52-17.64-59.05-35.26-88.59-52.88 6.4-2.17 13.16-2.84 19.73-4.28 15.79-3.24 31.76-5.66 47.41-9.46 10.59-1.25 20.96-3.78 31.44-5.7 72.73-13.91 145.44-27.89 218.16-41.84z"
     fill="#22510D"
     id="path38"
     style="opacity:0.7" />
  <path
     d="m684.74 245.15c6.61-1.12 13.41-1.8 19.72-4.22l1.36 0.8c29.54 17.62 59.07 35.24 88.59 52.88 11.33 6.57 22.34 13.73 33.89 19.91l-0.73 0.14c-6.58 1.63-13.54 2.09-19.76 4.88-0.74-0.45-1.48-0.89-2.21-1.32-40.12-24.2-80.11-48.6-120.27-72.71l-0.59-0.36z"
     fill="#A8A9A8"
     id="path40"
     style="opacity:0.7" />
  <path
     d="m673.24 752.73c4.34 4.42 9.74 7.89 13.2 13.11l0.3 0.46c-3.37-2.2-5.87-5.49-9.14-7.78l-19.84-18.17c-0.67-0.81-1.35-1.6-2.05-2.37 6.78 3.71 11.6 9.94 17.53 14.75z"
     fill="#B5B5B5"
     id="path42" />
  <path
     d="m657.76 740.35l-101.88-93.3c1.24 1.04 2.5 2.06 3.79 3.05 2.9 2.79 5.81 5.57 8.84 8.22 1.03 0.93 2.07 1.86 3.14 2.77 2.9 2.8 5.84 5.55 8.87 8.21 1.03 0.94 2.07 1.86 3.13 2.78 2.89 2.8 5.8199 5.55 8.89 8.16 0.7 0.61 1.39 1.22 2.11 1.84 3.18 3.17 6.46 6.25 9.9 9.15 0.71 0.62 1.42 1.23 2.16 1.85 2.9 2.74 5.82 5.46 8.7599 8.16 1.04 0.96 2.09 1.92 3.17 2.86 2.89 2.8 5.85 5.55 8.87 8.22 1.03 0.93 2.07 1.86 3.14 2.77 2.89 2.8 5.81 5.5699 8.89 8.17 0.69 0.6 1.39 1.2 2.1 1.81 3.18 3.19 6.51 6.22 9.84 9.25 1.36 1.27 2.77 2.49 4.23 3.66 0.7001 0.77 1.3801 1.56 2.0501 2.37z"
     fill="#B5B5B5"
     id="path44" />
  <path
     d="m524.63 618.04c3.89 2.04 7.15 5.01 10.26 8.08 7.03 6.39 13.95 12.91 21.06 19.22-0.28 0.18-0.83 0.52-1.14 0.73l-23.24-21.29c-2.28-2.29-4.64-4.49-6.94-6.74z"
     fill="#B5B5B5"
     id="path46" />
  <path
     d="m517.49 657.93c-0.76-2.57 2.16-2.95 3.93-3.53 11.11-2.73 22.17-5.7 33.33-8.29 0.37 0.32 0.75 0.64 1.13 0.94l101.88 93.3c0.24 0.28 0.48 0.57 0.72 0.85-12.48 3.74-25.09 7.06-37.6 10.67-32.9 9.08-65.64 18.74-98.61 27.52-1.67-40.48-3.28-80.97-4.78-121.46z"
     fill="#fff"
     id="path48" />
  <path
     d="m524.63 618.04c2.3 2.25 4.66 4.45 6.94 6.7401l-13.57-12.43c1.21 0.97 2.4 1.96 3.58 2.98 1.01 0.9 2.01 1.82 3.05 2.71z"
     fill="#B5B5B5"
     id="path50" />
  <path
     d="m515.74 610.57c0.74 0.57 1.47 1.14 2.19 1.72l0.07 0.06 13.57 12.43c0.63 0.6299 1.25 1.2599 1.86 1.91-5.65 1.6-11.34 3.04-17.06 4.32-0.17-6.8201-0.76-13.62-0.63-20.44z"
     fill="#FEFEFE"
     id="path52" />
  <path
     d="m486.24 664c-1.62-8.06-1.64-16.32-3.19-24.38 0.48-0.15 1.44-0.44 1.92-0.59-1.08-19.02-2.12-38.04-3.14-57.05 0.05-1.49-0.52-2.78-1.31-3.95l37.41 34.26c-0.72-0.58-1.45-1.15-2.19-1.72-0.13 6.82 0.46 13.62 0.63 20.44 5.72-1.28 11.41-2.72 17.06-4.32-0.61-0.65-1.23-1.28-1.86-1.91l23.24 21.29c-0.02 0.01-0.04 0.03-0.06 0.04-11.16 2.59-22.22 5.56-33.33 8.29-1.77 0.58-4.69 0.96-3.93 3.53 1.5 40.49 3.11 80.98 4.78 121.46 32.97-8.78 65.71-18.44 98.61-27.52 12.51-3.61 25.12-6.93 37.6-10.67-0.24-0.28-0.48-0.57-0.72-0.85l19.84 18.17c-0.25-0.19-0.5099-0.36-0.78-0.53-7.72 1.3-15.1 4.23-22.68 6.21-43.65 12.66-87.24 25.5-130.91 38.09 1.22 39.23 3.11 78.43 4.5 117.65 0.09 5.32 0.76 10.65 0.47 15.98-0.99 1.78-3.13 2.52-4.87 3.42-7.09 3.1-15.03 0.95-21.99-1.48-5.06-91.28-9.89-182.59-15.1-273.86z"
     fill="#6B6B6B"
     id="path54" />
  <path
     d="m517.93 612.29l-37.41-34.26c-0.5-0.7401-1.1-1.4301-1.69-2.09 5.7 3.14 9.83 8.26 14.76 12.38 6.62 6.1 13.31 12.12 19.88 18.27 2.9 2.71 6.41 5.0099 8.11 8.74-1.18-1.02-2.37-2.01-3.58-2.98l-0.07-0.06z"
     fill="#B5B5B5"
     id="path56" />
  <path
     d="m483.05 639.62c1.55 8.06 1.57 16.32 3.19 24.38-4.52 0.44-8.87 1.85-13.26 2.96-31.26 8.07-62.52 16.18-93.8 24.17-4.48 1.06-8.88 2.61-13.51 2.85-0.93-7.99-0.09-16.15-1.97-24.02 16.13-3.62 32.07-8.09 48.12-12.09 23.74-6.1 47.5-12.12 71.23-18.25z"
     fill="#707070"
     id="path58" />
  <path
     d="m377.28 411.49c-5.44 1.25-11.15 1.75-16.16 4.4-0.51-0.39-1.02-0.78-1.52-1.18-15.19-13.35-30.33-26.77-45.65-39.97-0.7-0.65-1.35-1.32-2.01-1.99 0.3-1.47 0.6-2.92 0.82-4.39 0.54-17.12-0.35-34.27 0.08-51.4 4.97-1.27 9.99-2.28 15.04-3.17 109.91-21.07 219.81-42.15 329.7-63.26 9.28-1.5 18.41-3.91 27.75-5.02 40.16 24.11 80.15 48.51 120.27 72.71-4.86 2.88-10.56 3.37-15.96 4.57-19.21 4.07-38.38 8.41-57.63 12.3-118.21 25.64-236.51 50.84-354.73 76.4z"
     fill="#1D500D"
     id="path60"
     style="opacity:0.7" />
  <path
     d="m478.83 575.94c0.59 0.66 1.19 1.35 1.69 2.09l-123.31-112.92c0.51 0.32 1 0.67 1.51 0.96 2.81 2.87 5.76 5.6 8.77 8.26 1.03 0.94 2.07 1.86 3.13 2.77 3.23 3.11 6.5 6.19 9.93 9.1 0.7 0.61 1.4 1.22 2.12 1.84 2.85 2.84 5.79 5.6 8.86 8.21 0.7 0.61 1.4 1.21 2.11 1.83 3.17 3.18 6.47 6.24 9.9 9.16 0.69 0.61 1.39 1.22 2.11 1.84 3.17 3.18 6.47 6.23 9.89 9.15 0.69 0.61 1.39 1.22 2.1 1.83 2.87 2.85 5.83 5.6 8.87 8.27 1.03 0.93 2.07 1.85 3.13 2.76 2.9 2.8 5.83 5.56 8.86 8.23 1.02 0.93 2.05 1.85 3.11 2.75 2.9 2.8 5.83 5.57 8.92 8.18 0.7 0.61 1.4 1.22 2.12 1.83 2.85 2.84 5.8 5.57 8.78 8.28 1.37 1.3 2.77 2.55 4.22 3.76 2.94 2.74 5.87 5.5 8.84 8.21 1.37 1.29 2.83 2.48 4.34 3.61z"
     fill="#B5B5B5"
     id="path62" />
  <path
     d="m481.83 581.98c1.02 19.01 2.06 38.03 3.14 57.05-0.48 0.15-1.44 0.4399-1.92 0.59-23.73 6.13-47.49 12.15-71.23 18.25-16.05 4-31.99 8.47-48.12 12.09-1.32-11.96-1.07-24.04-1.95-36.04-2.29-52.9-4.58-105.8-7.02-158.7 0-0.17 0.01-0.33 0.01-0.5 0.01-3.49-0.47-7.06 0.43-10.46 0.75 0.11 1.4 0.45 2.04 0.85l123.31 112.92c0.79 1.17 1.36 2.46 1.31 3.95z"
     fill="#fff"
     id="path64" />
  <path
     d="m344.98 418.83l6.66 5.92c-3.23-0.42-5.11-3.29-6.66-5.92z"
     fill="#B5B5B5"
     id="path66"
     style="opacity:0.7" />
  <path
     d="m364.63 698.93c1.29 28.7 2.56 57.41 3.83 86.11 0.03 2.8 0.48 5.66-0.02 8.46-3.4 2.98-7.81 5.28-12.45 5.02-4.41-0.23-8.48-2.13-12.4-3.99-4.84-115.18-10.28-230.33-15.3-345.5-0.34-3.9 0.38-8.38-1.53-11.8l28.14 25.77c-1.77 3.53-0.19 7.85-0.16 11.72 0 0.17-0.01 0.33-0.01 0.5 2.44 52.9 4.73 105.8 7.02 158.7 0.88 12 0.63 24.08 1.95 36.04 1.88 7.87 1.04 16.03 1.97 24.02-0.6 1.58-1.22 3.21-1.04 4.95z"
     fill="#6B6B6B"
     id="path68" />
  <path
     d="m335.44 443.61c6.73 6.09 13.44 12.19 20.06 18.39-0.24 0.33-0.44 0.66-0.6 1l-28.14-25.77c-0.47-0.84-1.09-1.61-1.93-2.3 4.11 2.14 7.29 5.54 10.61 8.68z"
     fill="#B5B5B5"
     id="path70" />
  <path
     d="m326.76 437.23l-8.74-8.01c0.87 0.74 1.77 1.44 2.71 2.1l-0.29-0.45c-1.35-2.23-3.07-4.2-4.81-6.11 3.94-0.88 7.88-1.83 11.82-2.72l17.53-3.21c1.55 2.63 3.43 5.5 6.66 5.92l484.14 430.43 0.4 46.11c-1.5-0.75-3.01-1.49-4.49-2.24 1.44 1.61 2.97 3.16 4.51 4.71l-40.31-36.92v-0.06c3.37 2.73 6.34 5.93 9.88 8.48l-0.3-0.44c-2.86-4.49-7.3799-7.47-11.08-11.18-7.18-6.48-14.22-13.1-21.43-19.54-3.53-3.27-6.82-6.93-11.15-9.17 0.7 1.01 1.74 1.89 2.43 2.93l-86.64-79.34c3.27 2.29 5.77 5.58 9.14 7.78l-0.3-0.46c-3.46-5.22-8.86-8.69-13.2-13.11-5.93-4.81-10.75-11.04-17.53-14.75-1.46-1.17-2.87-2.39-4.23-3.66-3.33-3.03-6.66-6.06-9.84-9.25-0.71-0.61-1.41-1.21-2.1-1.81-3.08-2.6-6-5.37-8.89-8.17-1.07-0.91-2.11-1.84-3.14-2.77-3.02-2.67-5.98-5.42-8.87-8.22-1.08-0.94-2.13-1.9-3.17-2.86-2.9399-2.7-5.86-5.42-8.7599-8.16-0.7401-0.62-1.45-1.23-2.16-1.85-3.44-2.9-6.72-5.98-9.9-9.15-0.72-0.62-1.41-1.23-2.11-1.84-3.07-2.61-6-5.36-8.89-8.16-1.06-0.92-2.1-1.84-3.13-2.78-3.03-2.66-5.97-5.41-8.87-8.21-1.07-0.91-2.11-1.84-3.14-2.77-3.03-2.65-5.94-5.43-8.84-8.22-1.29-0.99-2.55-2.0099-3.79-3.05l-1.07-0.98c0.31-0.21 0.86-0.55 1.14-0.73-7.11-6.31-14.03-12.83-21.06-19.22-3.11-3.07-6.37-6.04-10.26-8.08-1.04-0.89-2.04-1.81-3.05-2.71-1.7-3.73-5.21-6.03-8.11-8.74-6.57-6.15-13.26-12.17-19.88-18.27-4.93-4.12-9.06-9.24-14.76-12.38-1.51-1.13-2.97-2.32-4.34-3.61-2.97-2.71-5.9-5.47-8.84-8.21-1.45-1.21-2.85-2.46-4.22-3.76-2.98-2.71-5.93-5.44-8.78-8.28-0.72-0.61-1.42-1.22-2.12-1.83-3.09-2.61-6.02-5.38-8.92-8.18-1.06-0.9-2.09-1.82-3.11-2.75-3.03-2.67-5.96-5.43-8.86-8.23-1.06-0.91-2.1-1.83-3.13-2.76-3.04-2.67-6-5.42-8.87-8.27-0.71-0.61-1.41-1.22-2.1-1.83-3.42-2.92-6.72-5.97-9.89-9.15-0.72-0.62-1.42-1.23-2.11-1.84-3.43-2.92-6.73-5.98-9.9-9.16-0.71-0.62-1.41-1.22-2.11-1.83-3.07-2.61-6.01-5.37-8.86-8.21-0.72-0.62-1.42-1.23-2.12-1.84-3.43-2.91-6.7-5.99-9.93-9.1-1.06-0.91-2.1-1.83-3.13-2.77-3.01-2.66-5.96-5.39-8.77-8.26-0.51-0.29-1-0.64-1.51-0.96l-2.3101-2.11c0.16-0.34 0.36-0.67 0.6-1-6.62-6.2-13.33-12.3-20.06-18.39-3.32-3.14-6.5-6.54-10.61-8.68 0.84 0.69 1.46 1.46 1.93 2.3z"
     fill="#B5B5B5"
     id="path72" />
  <path
     d="m327.45 422.04c-3.94 0.89-7.88 1.84-11.82 2.72 1.74 1.91 3.46 3.88 4.81 6.11l0.29 0.45c-0.94-0.66-1.84-1.36-2.71-2.1l-4.96-4.54 14.39-2.64z"
     fill="#B5B5B5"
     id="path74"
     style="opacity:0.7" />
  <path
     d="m313.06 424.68l4.96 4.54c-1.72-1.44-3.34-3-4.96-4.54z"
     fill="#787878"
     id="path76"
     style="opacity:0.7" />
  <path
     d="m313.85 390.51c7.3 5.49 13.72 12.02 20.67 17.93 3.65 3.28 7.78 6.18 10.46 10.39-5.9 0.7-11.73 1.9-17.53 3.21l-14.39 2.64c0.67-3.58 0.88-7.19 0.89-10.82v-0.13c0.24-6.85 0.11-14.9-0.1-23.22z"
     fill="#787878"
     id="path78"
     style="opacity:0.7" />
  <path
     d="m313.85 390.51c0.21 8.32 0.34 16.37 0.1 23.22 0.02-4.83-0.3-9.68-0.29-14.5 0.01-0.34 0.01-0.68-0.01-1.01v-0.09c0-2.54 0.09-5.08 0.2-7.62z"
     fill="#B5B5B5"
     id="path80"
     style="opacity:0.7" />
  <path
     d="m313.65 398.22c0.02 0.33 0.02 0.67 0.01 1.01-0.01-0.33-0.01-0.67-0.01-1.01z"
     fill="#B5B5B5"
     id="path82"
     style="opacity:0.7" />
  <path
     d="m313.85 390.51c-0.11 2.54-0.2 5.08-0.2 7.62-0.22-4.69-2.82-8.7-5.45-12.46 0.25 0.16 0.51 0.33 0.76 0.51l4.89 4.33z"
     fill="#B5B5B5"
     id="path84"
     style="opacity:0.7" />
  <path
     d="m334.52 408.44c-6.95-5.91-13.37-12.44-20.67-17.93l-4.89-4.33c1.68 1.12 3.29 2.34 4.86 3.64-0.27-5.03-0.51-10.08 0.13-15.08 15.32 13.2 30.46 26.62 45.65 39.97-4.44 1.68-9.15 2.36-13.75 3.43 2.14 2.21 4.38 4.33 6.4 6.67-0.21-0.01-0.41-0.03-0.61-0.06l-6.66-5.92c-2.68-4.21-6.81-7.11-10.46-10.39z"
     fill="#A8A9A8"
     id="path86"
     style="opacity:0.7" />
  <linearGradient
     id="a"
     x1="65.026"
     x2="1790"
     y1="296.72"
     y2="633.72"
     gradientUnits="userSpaceOnUse"
     gradientTransform="translate(283.54503,252.72492)"
     inkscape:swatch="gradient">
    <stop
       stop-color="#267614"
       offset="0"
       id="stop88" />
    <stop
       stop-color="#3F7E13"
       offset="1"
       id="stop90" />
  </linearGradient>
  <path
     d="m 1821.2431,509.54376 c -6.8701,2.98 -14.14,4.86 -21.16,7.41 -123.36,41.26 -246.7,82.58 -370.05,123.86 -11.3,3.6 -22.42,7.85 -33.82,11.07 -6.97,-3.3 -13.38,-7.76 -20.01,-11.7 -104.95,-62.43 -209.7,-125.21 -314.59,-187.76 -6.85,-4.34 -14.13,-7.99 -20.72,-12.72 -7.1399,-3.42 -13.66,-8.07 -20.57,-11.94 -52.39004,-31.28 -104.77004,-62.58 -157.16004,-93.85 -11.51,-6.72 -22.75,-13.9 -34.43,-20.31 l 0.73,-0.1399 c 98.26,-21.06 196.47004,-42.36 294.73004,-63.37 18.94,-4.04 37.86,-8.15 56.79,-12.2 7.7799,-1.9099 15.86,-2.74 23.38,-5.6399 0.3901,0.1799 1.17,0.52 1.5601,0.6899 92.57,41.66 185.2,83.19 277.76,124.89 112.55,50.51 225.07,101.08 337.56,151.71 z m -449.46,150.8 c -143.4,47.92 -286.76,95.97998 -430.15004,143.94998 -19.2,6.26 -38.21,13.18 -57.54,18.98 -9.83,4 -20.14,6.8 -30.15,10.37 -3.52,0.98 -6.8701,2.75 -10.51,3.13 -65.15,-56.87 -130.06003,-114.01998 -195.13007,-170.99998 -10.71,-9.65 -21.95,-18.75 -32.34,-28.74 -7.33,-5.52 -13.87,-12.06 -20.9,-17.96 -77.57,-68.1 -155.28,-136.05 -232.78,-204.24 5.01,-2.65 10.72,-3.15 16.16,-4.4 118.22,-25.56 236.52,-50.76 354.73007,-76.4 19.25,-3.8901 38.42,-8.2301 57.63,-12.3 5.4,-1.2 11.1,-1.6901 15.96,-4.5701 0.7301,0.4301 1.4701,0.8701 2.2101,1.3201 76.55,46.34 153.1,92.68 229.65004,139.01 0.3301,0.32 1,0.97 1.3301,1.3 7.6199,3.52 14.45,8.53 21.75,12.66 102.98,62.33 205.94,124.7 308.95,187 0.9198,0.32 1.2999,0.95 1.1299,1.89 z m -666.16007,-420.47 c 0.34,0.2001 1.02,0.6001 1.36,0.8 6.3999,-2.1699 13.16003,-2.84 19.73003,-4.28 15.79,-3.24 31.76,-5.6599 47.41,-9.46 10.59,-1.25 20.96,-3.78 31.44,-5.7 72.73,-13.91 145.44,-27.89 218.16004,-41.84 14.52,-2.8999 29.14,-5.2999 43.58,-8.59 -11.37,-5.4301 -22.96,-10.37 -34.41,-15.61 -65.47004,-29.43 -130.96004,-58.840003 -196.42004,-88.300003 -12.72,-5.6798 -25.42,-11.4 -38.11,-17.12 -1.6199,-0.8401 -3.4299,-1.1501 -5.1899,-0.6702 -104.81003,18.42 -209.70007,36.39 -314.48007,54.970003 5.17,4.13 11.24,6.9401 16.82,10.49 70.07,41.72 140.09,83.51 210.11004,125.31 z m -376.58004,72.86 c 109.91,-21.07 219.81,-42.15 329.70004,-63.26 9.28,-1.5 18.41,-3.91 27.75,-5.02 l -0.59,-0.36 c -74.65004,-45.41 -149.49004,-90.5 -224.19004,-135.81 -1.57,-1.3601 -3.64,-0.7101 -5.46,-0.4401 -16.5,2.9 -33.01,5.7699 -49.52,8.65 -4.34,0.79 -8.76,1.29 -12.97,2.6099 -8.47,0.6501 -16.8,2.8 -25.22,4.04 -94.14,16.45 -188.3,32.79 -282.440005,49.27 3.23,3.3201 6.83,6.23 10.27,9.3201 72.270005,63.29 144.390005,126.75 216.730005,189.96 0.3,-1.47 0.6,-2.9199 0.82,-4.39 0.54,-17.12 -0.35,-34.27 0.08,-51.4 4.97,-1.2701 9.99,-2.2801 15.04,-3.17 z"
     fill="url(#a)"
     id="path93"
     style="display:inline;fill:#69e268;fill-opacity:0.80454546;fill-rule:nonzero;stroke:none;stroke-opacity:1;opacity:0.5"
     sodipodi:nodetypes="scccccccccccccccssscccccccccccccccccsscccccccccccccccscccccccccccccss" />
  <path
     d="m188.38 311.69c-0.55 1.06 0.04 2.6-0.09 3.76 7.11 91.82 14.23 183.65 21.37 275.47 0.34 7.34 1.48 14.66 1.48 22.01-4.31 3.14-10.29 2.51-15.14 1.01-12.41-109.58-24.54-219.19-36.89-328.77l29.27 26.52z"
     fill="#6B6B6B"
     id="path95" />
  <path
     d="m188.91 311.08c-0.25 0.17-0.42 0.38-0.53 0.61l-29.27-26.52c-0.09-0.73-0.17-1.46-0.25-2.19 4.31 2.23 7.58 5.87 11.1 9.12 6.65 6.02 13.23 12.12 19.79 18.23l-0.84 0.75z"
     fill="#B5B5B5"
     id="path97" />
  <path
     d="m313.06 424.68l-124.68-112.99c0.11-0.23 0.28-0.44 0.53-0.61l0.84-0.75c-6.56-6.11-13.14-12.21-19.79-18.23-3.52-3.25-6.79-6.89-11.1-9.12 0.08 0.73 0.16 1.46 0.25 2.19l-101.75-92.2v-29.64l251.6 222.85c-0.25-0.18-0.51-0.35-0.76-0.51 2.63 3.76 5.23 7.77 5.45 12.46v0.09c0 0.34 0 0.68 0.01 1.01-0.01 4.82 0.31 9.67 0.29 14.5v0.13c-0.15 4.11-0.42 7.78-0.89 10.82z"
     fill="#B5B5B5"
     id="path99" />
  <g
     fill="none"
     id="g197"
     style="fill:none;fill-opacity:0.65909094">
    <path
       d="m704.46 240.93c-70.02-41.8-140.04-83.59-210.11-125.31-5.58-3.55-11.65-6.36-16.82-10.49 104.78-18.58 209.67-36.55 314.48-54.97 1.76-0.48 3.57-0.17 5.19 0.67 12.69 5.72 25.39 11.44 38.11 17.12"
       stroke="#2D7813"
       stroke-width=".0938"
       id="path101"
       style="fill:none;fill-opacity:0.65909094" />
    <path
       d="m772.96 227.99c2.7599-1.57 5.84-2.68 8.31-4.71 1.26-1.9 2-4.07 3.04-6.09 1.46-3.16 3.87-6.02 4.07-9.63 0.36-5.71 3.42-10.67 5.13-16 1.89-5.5 2.64-11.4 5.41-16.57 1.8-3.58 4.38-6.88 5.07-10.92 0.71-3.19 0.51-6.76 2.57-9.48 1.39-2.22 3.51-4.07 4.28-6.63 0.2599-3-0.51-6.03 0.08-9.02 1.07-6.48 5.37-11.77 7.05-18.08 4.21-7.92 5.42-17.07 10.17-24.72 2.35-3.63 1.75-8.14 2.89-12.15 1.05-3.62 3.79-6.5 4.77-10.14 0.12-1.98-0.25-3.94-0.49-5.9 65.46 29.46 130.95 58.87 196.42 88.3 11.45 5.24 23.04 10.18 34.41 15.61"
       stroke="#317913"
       stroke-width=".0938"
       id="path103"
       style="fill:none;fill-opacity:0.65909094" />
    <path
       d="m392.6 120.16c4.21-1.32 8.63-1.82 12.97-2.61 16.51-2.88 33.02-5.75 49.52-8.65 1.82-0.27 3.89-0.92 5.46 0.44 74.7 45.31 149.54 90.4 224.19 135.81"
       stroke="#2A7714"
       stroke-width=".0938"
       id="path105"
       style="fill:none;fill-opacity:0.65909094" />
    <path
       d="m311.94 372.75c-72.34-63.21-144.46-126.67-216.73-189.96-3.44-3.09-7.04-6-10.27-9.32 94.14-16.48 188.3-32.82 282.44-49.27 8.42-1.24 16.75-3.39 25.22-4.04 3.38 0.55 6.8 0.92 10.24 1.07l-0.07 0.55c-7.08 0.39-14.18 1.12-21.08 2.83-5.95 1.47-12.13 1.55-18.09 2.98-6.96 1.68-14.24 2.12-20.91 4.88 2.23 1.3 4.47 2.57 6.71 3.86-4.02 1.78-8.31 2.83-12.61 3.67 1.79 1.06 3.58 2.12 5.37 3.17-1.46 9.02-6.53 16.77-9.74 25.19-2.52 5.72-2.34 12.23-5.05 17.89-1.36 3.15-3.74 5.69-5.36 8.69-1.26 3.77 1.25 8.27-1.35 11.7-3.2 4.39-4.14 9.83-6.41 14.67-2.74 5.67-2.86 12.06-3.73 18.18-2.14 0.29-4.28 0.59-6.42 0.89-0.59 5.62 0.61 11.56-1.76 16.89-1.86 4.61-3.41 9.34-4.95 14.07-1.71 0.35-3.43 0.71-5.14 1.06-0.15 3.42-0.11 6.87-0.65 10.26-0.51 3-3 5.07-4.29 7.71-0.66 3.61 1.08 7.35 0.09 10.91-1.96 2.4-5.04 3.91-6.19 6.93-1.99 4.84-2.55 10.09-4.04 15.08-1.13 3.79-2.97 7.3-4.74 10.82 3.99 3.48 8.32 6.62 11.74 10.7 2.75 3.33 6.54 5.46 9.79 8.22 6 5.42 12 10.93 18.8 15.33"
       stroke="#267614"
       stroke-width=".0938"
       id="path107"
       style="fill:none;fill-opacity:0.65909094" />
    <path
       d="m705.82 241.73c6.4-2.17 13.16-2.84 19.73-4.28 15.79-3.24 31.76-5.66 47.41-9.46 10.59-1.25 20.96-3.78 31.44-5.7 72.73-13.91 145.44-27.89 218.16-41.84 14.52-2.9 29.14-5.3 43.58-8.59 0.37 0.08 1.12 0.25 1.5 0.34"
       stroke="#22510D"
       stroke-width=".0938"
       id="path109"
       style="fill:none;fill-opacity:0.65909094" />
    <path
       d="m1123 251.15c18.94-4.04 37.86-8.15 56.79-12.2 7.78-1.91 15.86-2.74 23.38-5.64"
       stroke="#397C12"
       stroke-width=".0938"
       id="path111"
       style="fill:none;fill-opacity:0.65909094" />
    <path
       d="m1375 641.24c-104.95-62.43-209.7-125.21-314.59-187.76-6.85-4.34-14.13-7.99-20.72-12.72"
       stroke="#397C12"
       stroke-width=".0938"
       id="path113"
       style="fill:none;fill-opacity:0.65909094" />
    <path
       d="m1204.8 234c92.57 41.66 185.2 83.19 277.76 124.89"
       stroke="#397C12"
       stroke-width=".0938"
       id="path115"
       style="fill:none;fill-opacity:0.65909094" />
    <path
       d="m685.33 245.51l-0.59-0.36c6.61-1.12 13.41-1.8 19.72-4.22l1.36 0.8c29.54 17.62 59.07 35.24 88.59 52.88 11.33 6.57 22.34 13.73 33.89 19.91"
       stroke="#A8A9A8"
       stroke-width=".0938"
       id="path117"
       style="fill:none;fill-opacity:0.65909094" />
    <path
       d="m827.57 314.66c-6.58 1.63-13.54 2.09-19.76 4.88"
       stroke="#A8A9A8"
       stroke-width=".0938"
       id="path119"
       style="fill:none;fill-opacity:0.65909094" />
    <path
       d="m313.95 374.74c-0.7-0.65-1.35-1.32-2.01-1.99 0.3-1.47 0.6-2.92 0.82-4.39 0.54-17.12-0.35-34.27 0.08-51.4 4.97-1.27 9.99-2.28 15.04-3.17 109.91-21.07 219.81-42.15 329.7-63.26 9.28-1.5 18.41-3.91 27.75-5.02 40.16 24.11 80.15 48.51 120.27 72.71"
       stroke="#1D500D"
       stroke-width=".0938"
       id="path121"
       style="fill:none;fill-opacity:0.65909094" />
    <path
       d="m361.12 415.89c-0.51-0.39-1.02-0.78-1.52-1.18"
       stroke="#1D500D"
       stroke-width=".0938"
       id="path123"
       style="fill:none;fill-opacity:0.65909094" />
    <path
       d="m828.3 314.52c98.26-21.06 196.47-42.36 294.73-63.37 0.22 1.56 0.45 3.13 0.6899 4.69-4.01 1.25-8.1699 1.91-12.37 1.84-1.15 4.53-0.62 9.17-0.1899 13.76-1.77 1.08-3.85 1.43-5.8201 1.92-0.6699 4.73-0.98 9.49-1.22 14.26-6.42 8.1-9.3 18.38-11.29 28.37-0.12 0.88-0.23 1.77-0.33 2.66-1.55 2.18-3.6899 4.32-3.6 7.2-0.0801 3.24-0.29 6.49-1.1801 9.63-1.46 0.39-2.9 0.79-4.3199 1.19-0.54 3.74-0.55 7.52-0.6 11.3 0.1799 2.56-1.88 4.36-3.27 6.24-3.8401 4.47-4.63 10.55-5.61 16.15-0.49-0.23-0.9501-0.45-1.4-0.66-1.05 2.76-2.4501 5.36-3.84 7.95-1.5601 2.82-1.2001 6.16-1.9 9.21-0.7101 3.64-3.15 6.65-4.01 10.24 0.39 1.51 1.28 2.83 2.03 4.21-0.6901 1.14-1.3501 2.3-2.15 3.36-1.4401 1.71-3.99 1.99-5.37 3.71-1.55 4.11 0.1 8.6-0.86 12.76-1.78 2.02-4.5601 3.4-5.0801 6.28-1.14 3.01 0.75 5.84 2.0901 8.42-3.05 1.31-5.8301 3.18-7.8201 5.86-1.97-0.29-3.9399-0.57-5.88-0.94-7.14-3.42-13.66-8.07-20.57-11.94-52.39-31.28-104.77-62.58-157.16-93.85-11.51-6.72-22.75-13.9-34.43-20.31l0.7302-0.14z"
       stroke="#347A13"
       stroke-width=".0938"
       id="path125"
       style="fill:none;fill-opacity:0.65909094" />
    <path
       d="m188.38 311.69c-0.55 1.06 0.04 2.6-0.09 3.76 7.11 91.82 14.23 183.65 21.37 275.47 0.34 7.34 1.48 14.66 1.48 22.01-4.31 3.14-10.29 2.51-15.14 1.01-12.41-109.58-24.54-219.19-36.89-328.77"
       stroke="#6B6B6B"
       stroke-width=".0938"
       id="path127"
       style="fill:none;fill-opacity:0.65909094" />
    <path
       d="m732.01 335.09c19.25-3.89 38.42-8.23 57.63-12.3 5.4-1.2 11.1-1.69 15.96-4.57 0.73 0.43 1.47 0.87 2.21 1.32 76.55 46.34 153.1 92.68 229.65 139.01 0.3301 0.32 1 0.97 1.3301 1.3"
       stroke="#327A13"
       stroke-width=".0938"
       id="path129"
       style="fill:none;fill-opacity:0.65909094" />
    <path
       d="m882.93 824.33c-9.83 4-20.14 6.8-30.15 10.37-3.52 0.98-6.8701 2.75-10.51 3.13-65.15-56.87-130.06-114.02-195.13-171-10.71-9.65-21.95-18.75-32.34-28.74"
       stroke="#327A13"
       stroke-width=".0938"
       id="path131"
       style="fill:none;fill-opacity:0.65909094" />
    <path
       d="m361.12 415.89c5.01-2.65 10.72-3.15 16.16-4.4 118.22-25.56 236.52-50.76 354.73-76.4-0.16 0.54-0.49 1.6-0.66 2.13 4.2-1.52 8.71-1.62 12.75 0.46-0.73 0.84-1.45 1.68-2.15 2.53 1.94 0.24 3.87 0.53 5.81 0.88-2.33 1.68-5.14 1.71-7.86 1.34-1.39 3.71-3.31 7.28-4.05 11.18 0.37 2.36 3.19 2.65 5.13 2.52 3.51-0.12 6.01-2.92 8.59-4.96 0.03 1.15 0.08 2.3 0.14 3.46 5.35 1.97 10.8-0.07 16.15-0.83-0.02 1.31-0.02 2.63-0.02 3.95-9.51 1.89-19.22 0.4-28.81 1.49-1.15-0.48-2.3-0.97-3.4301-1.44-1.2599 3.85-2.28 7.79-3.2599 11.72 3.45 0.55 6.92 0.23 10.36-0.24 2.47-0.35 4.7 1.04 6.93 1.91-5.45 1.3-11.05 0.96-16.58 1.09-2.67-0.35-3.11 2.75-4.12 4.5 2.32 0.16 4.65 0.31 6.98 0.48-0.3 1.03-0.58 2.06-0.86 3.1-2.36-0.23-5.41-1.8-7.35 0.21-2.77 4.53-3.02 9.99-4.23 15.04-0.72 3.42-3.42 5.91-4.62 9.13-0.59 3.04 0.28 6.14 0.66 9.17-1.14-0.13-2.26-0.26-3.38-0.38 0.37 5.14-3.68 8.6-5.5 12.96-1.36 6.49-4.5 12.44-5.33 19.06-1.89 4.22-3.87 8.41-4.68 13.01-0.54 3.36-3.65 5.54-4.36 8.78 2.05 0.71 4.17 1.25 6.27 1.84-2.55 0.58-5.11 1.12-7.6801 1.59-0.25 4.04-1.2599 7.98-2.8199 11.71 2.14 0.54 4.28 1.07 6.43 1.6-2.03 0.48-4.07 0.95-6.1 1.41-4.15 4.77-6.08 10.95-7.77 16.92-0.96 3.36 3.94 3.7 5.92 5.11-2.82 0.18-5.64 0.28-8.47 0.24-0.25 1.75-0.49 3.51-0.73 5.27 0.74 0.33 1.49 0.67 2.24 1.02-0.03-1.35-0.05-2.69-0.06-4.02 0.5 0.04 1.51 0.12 2.01 0.16 1.95 1.93 4.1 3.66 6.43 5.13-4.04-0.14-8.26-0.89-12.19 0.34-3.8 7.9301-5.81 16.7-9.41 24.79-2.16 4.47-2.12 9.72-4.76 13.98-1.69 2.59-1.93 5.7-2.17 8.7 0.49-0.08 1.45-0.24 1.94-0.32 0.24-1.1 0.5-2.2 0.7599-3.28 0.36 1.67 0.7 3.34 1.05 5.02-1.87 0.29-3.72 0.58-5.58 0.87-3.69 12.01-7.83 23.85-12.41 35.54-1.42 4.57-2.25 9.37-4.65 13.58-3.06 5.44-3.6 11.84-6.67 17.28-2.14 3.99-3.64 9.24-0.55 13.17-2.17 0.03-4.33 0.12-6.5 0.27-4.38-2.9-9.04-5.38-13.99-7.17-7.33-5.52-13.87-12.06-20.9-17.96-77.57-68.1-155.28-136.05-232.78-204.24z"
       stroke="#2E7914"
       stroke-width=".0938"
       id="path133"
       style="fill:none;fill-opacity:0.65909094" />
    <path
       d="m1482.5 358.89c112.55 50.51 225.07 101.08 337.56 151.71-6.87 2.98-14.14 4.86-21.16 7.41-123.36 41.26-246.7 82.58-370.05 123.86-11.3 3.6-22.42 7.85-33.82 11.07-6.9701-3.3-13.38-7.76-20.01-11.7 2.08-0.14 4.23-0.21 6.24-0.91 4.08-4.9 7.3099-10.88 7.7-17.36 0.05-4.55 3.78-7.79 4.46-12.16 2.2001-8.69 6.0901-16.84 9.5601-25.07 3.29-8.08 4.83-16.73 8.02-24.86 0.52 1.24 1.0599 2.48 1.63 3.74 2.4 0.09 4.7999 0.16 7.22 0.23-0.15-1.04-0.28-2.08-0.38-3.1-2.62-0.15-5.15-0.9-7.14-2.65 1.5701-0.36 3.17-0.69 4.78-1-0.21-0.3199-0.63-0.96-0.84-1.29-1.15-0.21-2.29-0.41-3.4-0.61 0.99-2.59 2.02-5.17 3.08-7.74 1.3201 0.07 2.65 0.15 4.01 0.23-1.1-0.69-2.1799-1.38-3.25-2.05 1.88-3.99 2.71-8.32 3.36-12.64 0.4401-3.97 4.85-6.1 5.04-10.16 0.2-2.67 1.0699-5.21 2.83-7.26-0.59-2.58-0.5699-5.3 1.9-6.87-0.61-6 3.02-11.06 5.62-16.12 4.02-7.77 4.39-16.82 8.38-24.61 2.8201-5.49 3.34-11.77 5.8-17.4 1.47-3.48 2.33-7.15 3.34-10.77 1.62-5.84 5.24-10.85 6.99-16.63 1.05-3.13 1.6801-6.62 4.09-9.06 1.76-1.96 4.5601-2.11 6.9501-2.81-1.65-0.65-3.28-1.32-4.89-1.98 0.0499-1.79-0.03-3.61 0.4-5.35 1.09-2.72 3.6-4.61 4.6499-7.35 0.8-2.59 0.9501-5.31 1.3101-7.98 1.1801-0.57 2.39-1.13 3.62-1.68-0.86-1.48-1.71-2.96-2.53-4.43 2.8401-1.18 5.78-2.1 8.8-2.75-1.77-0.54-3.52-1.08-5.26-1.62 0.22-1.26 0.45-2.51 0.7-3.75 1.0601 0.55 2.14 1.11 3.24 1.68 1.89-1.02 4.0901-1.73 5.6001-3.35 0.14-1.16 0.25-2.31 0.33-3.46-2.66-0.02-5.3 0-7.9399 0.07-0.4-0.84-0.79-1.66-1.17-2.48 0.89-0.55 1.83-1.08 2.76-1.61 1.39 2.1 3.7999 2.63 6.16 2.88-1.5901-1.75-3.52-3.29-4.5901-5.42-0.1005-1.63 0.1295-3.24 0.2995-4.84z"
       stroke="#3F7E13"
       stroke-width=".0938"
       id="path135"
       style="fill:none;fill-opacity:0.65909094" />
    <path
       d="m308.96 386.18c1.68 1.12 3.29 2.34 4.86 3.64-0.27-5.03-0.51-10.08 0.13-15.08 15.32 13.2 30.46 26.62 45.65 39.97-4.44 1.68-9.15 2.36-13.75 3.43 2.14 2.21 4.38 4.33 6.4 6.67-0.21-0.01-0.41-0.03-0.61-0.06"
       stroke="#A8A9A8"
       stroke-width=".0938"
       id="path137"
       style="fill:none;fill-opacity:0.65909094" />
    <path
       d="m318.02 429.22c-1.72-1.44-3.34-3-4.96-4.54 0.67-3.58 0.88-7.19 0.89-10.82"
       stroke="#787878"
       stroke-width=".0938"
       id="path139"
       style="fill:none;fill-opacity:0.65909094" />
    <path
       d="m313.85 390.51c7.3 5.49 13.72 12.02 20.67 17.93 3.65 3.28 7.78 6.18 10.46 10.39-5.9 0.7-11.73 1.9-17.53 3.21"
       stroke="#787878"
       stroke-width=".0938"
       id="path141"
       style="fill:none;fill-opacity:0.65909094" />
    <path
       d="m365.67 693.98c-0.6 1.58-1.22 3.21-1.04 4.95 1.29 28.7 2.56 57.41 3.83 86.11 0.03 2.8 0.48 5.66-0.02 8.46-3.4 2.98-7.81 5.28-12.45 5.02-4.41-0.23-8.48-2.13-12.4-3.99-4.84-115.18-10.28-230.33-15.3-345.5-0.34-3.9 0.38-8.38-1.53-11.8"
       stroke="#6B6B6B"
       stroke-width=".0938"
       id="path143"
       style="fill:none;fill-opacity:0.65909094" />
    <path
       d="m354.9 463c-1.77 3.53-0.19 7.85-0.16 11.72"
       stroke="#6B6B6B"
       stroke-width=".0938"
       id="path145"
       style="fill:none;fill-opacity:0.65909094" />
    <path
       d="m1000.6 572.92c0.41-0.19 1.23-0.57 1.64-0.76-4.64-0.3-9.29-0.4-13.9-1.02 3.39-1.29 6.86-2.4 10.36-3.37 0.21 0.43 0.62 1.29 0.83 1.72 0.32-0.13 0.97-0.38 1.29-0.51 2.06-4.37 6.03-8.03 5.97-13.17 0.5-0.5 1.02-0.99 1.55-1.47 0.29-3.23 0.76-6.45 1.74-9.55 1.73-5.57 3.11-11.4 6.5-16.27 1.66-2.25 2.28-4.98 2.46-7.72 0.51-0.24 1.04-0.46 1.57-0.68 0.04-0.94 0.07-1.87 0.13-2.79 1.08-1.11 2.17-2.22 3.28-3.32-0.65-1.34-1.29-2.67-1.91-4 1.95-4.48 3.06-9.28 5.16-13.71 2.28-4.87 3.15-10.21 4.75-15.32 1.11-0.15 2.24-0.3 3.38-0.44 0.11-2.63-0.21-5.45 0.99-7.87 2.21-1.05 4.64-1.49 6.99-2.14-2.78-2.94-5.35-6.38-4.5599-10.68 7.62 3.52 14.45 8.53 21.75 12.66 102.98 62.33 205.94 124.7 308.95 187 0.92 0.32 1.3 0.95 1.13 1.89-143.4 47.92-286.76 95.98-430.15 143.95-19.2 6.26-38.21 13.18-57.54 18.98 3.14-2.35 6.16-5.33 10.21-5.91 3.76-0.56 7.7-1.06 10.76-3.54 2.94-2.42 6.79-2.74 10.31-3.79 1.32-1.06 1.2599-3.11 1.86-4.6 2.35-0.32 4.71-0.63 7.07-0.94-2.3-1.68-4.67-3.25-7.1-4.72 2.75-3.13 5.39-6.55 6.08-10.79 0.72-4.62 5.63-7.24 5.81-12.05 0.73-6.22 3.47-11.9 5.29-17.83 1.4901-4.69 4.21-8.92 5.3-13.75 0.77-3.55 1.83-7.05 3.67-10.2 2.41-4.1 1.98-9.06 3.75-13.38 1.48-3.6 2.94-7.2 3.95-10.96 1.35-5.08 4.66-9.49 5.18-14.82 0.39-4.24 2.66-7.88 4.31-11.69 0.61-1.28 0.89-3.4-0.74-3.99-4.12-1.64-8.66-1.61-13.01-1.97"
       stroke="#397C12"
       stroke-width=".0938"
       id="path147"
       style="fill:none;fill-opacity:0.65909094" />
    <path
       d="m363.7 669.96c-1.32-11.96-1.07-24.04-1.95-36.04-2.29-52.9-4.58-105.8-7.02-158.7 0-0.17 0.01-0.33 0.01-0.5 0.01-3.49-0.47-7.06 0.43-10.46 0.75 0.11 1.4 0.45 2.04 0.85"
       stroke="#fff"
       stroke-width=".0938"
       id="path149"
       style="fill:none;fill-opacity:0.65909094" />
    <path
       d="m836.18 901.29c0.21 0.1 0.41 0.21 0.62 0.31-0.94-15.45-0.79-30.94-1.02-46.42 0.58-0.2 1.73-0.6 2.31-0.8 199.2-66.72 398.53-133.03 597.77-199.63 3.9401-1.11 7.6901-3.1 11.81-3.47 2.5599 0 5.1699-0.14 7.62-1.02 17.45-5.99 35.02-11.63 52.5-17.54 77-25.15 153.8-50.97 230.76-76.26 41.05-13.54 82.02-27.36 123.1-40.8-0.04 10.6 0.74 21.2 0.28 31.79-1.03 0.64-2.04 1.3-3.02 1.96l1.1-0.15c-7.38 3.19-15.15 5.34-22.68 8.12-66.1 22.9-132.22 45.77-198.33 68.65-3.53 1.1899-6.98 2.71-10.67 3.3199"
       stroke="#7C7C7C"
       stroke-width=".0938"
       id="path151"
       style="fill:none;fill-opacity:0.65909094" />
    <path
       d="m1582.7 645.21c-6.77 3.1-14.04 4.93-20.99 7.56-165.62 57.35-331.27 114.65-496.9 172-76.22 26.27-152.33 52.89-228.62 78.99"
       stroke="#7C7C7C"
       stroke-width=".0938"
       id="path153"
       style="fill:none;fill-opacity:0.65909094" />
    <path
       d="m936.01 602.87c4.02-5.53 9.26-9.98 14.12-14.73 5.07-4.97 11.51-8.13 17.91-11.03 10.14-4.6 21.58-5.44 32.53-4.19 12.13 2.99 23.86 10.14 30.29 21.09 6.9-2.94 12.79-8.01 20.11-10.01 10.38-3.49 21.88-5.19 32.47-1.58 11.97 3.51 22.05 12 28.56 22.53 2.0699 3.91 3.53 8.12 5.27 12.2"
       stroke="#B00122"
       stroke-width=".0938"
       id="path155"
       style="fill:none;fill-opacity:0.65909094" />
    <path
       d="m483.05 639.62c0.48-0.15 1.44-0.44 1.92-0.59-1.08-19.02-2.12-38.04-3.14-57.05 0.05-1.49-0.52-2.78-1.31-3.95"
       stroke="#6B6B6B"
       stroke-width=".0938"
       id="path157"
       style="fill:none;fill-opacity:0.65909094" />
    <path
       d="m677.6 758.52c-0.25-0.19-0.5099-0.36-0.78-0.53-7.72 1.3-15.1 4.23-22.68 6.21-43.65 12.66-87.24 25.5-130.91 38.09 1.22 39.23 3.11 78.43 4.5 117.65 0.09 5.32 0.76 10.65 0.47 15.98-0.99 1.78-3.13 2.52-4.87 3.42-7.09 3.1-15.03 0.95-21.99-1.48-5.06-91.28-9.89-182.59-15.1-273.86"
       stroke="#6B6B6B"
       stroke-width=".0938"
       id="path159"
       style="fill:none;fill-opacity:0.65909094" />
    <path
       d="m554.81 646.07c-0.02 0.01-0.04 0.03-0.06 0.04"
       stroke="#6B6B6B"
       stroke-width=".0938"
       id="path161"
       style="fill:none;fill-opacity:0.65909094" />
    <path
       d="m929.66 643.19c-4.98-13.29-2.44-29.2 6.35-40.32-1.54 3.78-3.28 7.49-4.79 11.29-3.0099 8.44-4.34 18.13-0.54 26.56"
       stroke="#715122"
       stroke-width=".0938"
       id="path163"
       style="fill:none;fill-opacity:0.65909094" />
    <path
       d="m531.57 624.78c0.63 0.6299 1.25 1.2599 1.86 1.91-5.65 1.6-11.34 3.04-17.06 4.32-0.17-6.82-0.76-13.62-0.63-20.44 0.74 0.57 1.47 1.14 2.19 1.72"
       stroke="#FEFEFE"
       stroke-width=".0938"
       id="path165"
       style="fill:none;fill-opacity:0.65909094" />
    <path
       d="m1032.2 675.63c4.42 4.64 7.8401 10.34 12.94 14.26 11.01 4.3 23.68 2.44 34.16-2.53 8.5199-3.94 15.39-10.56 21.57-17.48 6.52-7.4 11.91-15.95 14.77-25.43 2.89-8.79 2.34-18.22 1.62-27.3 1.22 5.14 1.12 10.52 1.15 15.78-0.4601 14.95-8.2101 28.64-17.99 39.55-5.55 6.14-11.51 12.16-18.99 15.89-9.5599 5.18-20.9 6.58-31.54 4.65-6.61-1.17-12.07-6.01-18.9-6.27-7.44-0.15-14.17 3.88-19.48 8.77-9.09 8.25-17.15 17.55-25.51 26.51-1.48 1.48-2.97 3.06-4.93 3.8799-5.65-3.18-9.78-8.49-13.41-13.74"
       stroke="#E9CCA4"
       stroke-width=".0938"
       id="path167"
       style="fill:none;fill-opacity:0.65909094" />
    <path
       d="m1579.5 748.57c0.9199-29.51 2.09-59.01 3.1-88.51 0.09-4.95 0.47-9.91 0.09-14.85 6.91-3.9 14.76-5.56 22.14-8.38 7.84-2.43 15.33-6.1 23.48-7.48-2.0599 25.21-3.63 50.47-5.58 75.69-0.3101 1.19 0.05 2.7401-0.88 3.69"
       stroke="#2D2D2D"
       stroke-width=".0938"
       id="path169"
       style="fill:none;fill-opacity:0.65909094" />
    <path
       d="m363.7 669.96c16.13-3.62 32.07-8.09 48.12-12.09 23.74-6.1 47.5-12.12 71.23-18.25 1.55 8.06 1.57 16.32 3.19 24.38-4.52 0.44-8.87 1.85-13.26 2.96-31.26 8.07-62.52 16.18-93.8 24.17-4.48 1.06-8.88 2.61-13.51 2.85-0.93-7.99-0.09-16.15-1.97-24.02z"
       stroke="#707070"
       stroke-width=".0938"
       id="path171"
       style="fill:none;fill-opacity:0.65909094" />
    <path
       d="m927.69 663.44c3.82-5.99 3.86-13.61 1.97-20.25 0.25-0.62 0.76-1.86 1.02-2.47 3.01 3.98 6.4 7.66 9.62 11.49"
       stroke="#EBCDA3"
       stroke-width=".0938"
       id="path173"
       style="fill:none;fill-opacity:0.65909094" />
    <path
       d="m657.76 740.35c0.24 0.28 0.48 0.57 0.72 0.85-12.48 3.74-25.09 7.06-37.6 10.67-32.9 9.08-65.64 18.74-98.61 27.52-1.67-40.48-3.28-80.97-4.78-121.46-0.76-2.57 2.16-2.95 3.93-3.53 11.11-2.73 22.17-5.7 33.33-8.29 0.37 0.32 0.75 0.64 1.13 0.94"
       stroke="#fff"
       stroke-width=".0938"
       id="path175"
       style="fill:none;fill-opacity:0.65909094" />
    <path
       d="m1004.7 674.47c1.74-2.6 3.58-5.22 4.49-8.25 1.5-5.79 0.17-11.78-0.38-17.61 3.87 3.75 7.14 8.05 10.63 12.15"
       stroke="#EFCBA3"
       stroke-width=".0938"
       id="path177"
       style="fill:none;fill-opacity:0.65909094" />
    <path
       d="m936.01 684.26c-12.47 10.08-21.96 23.24-33.9 33.86-6.89-5.19-13.37-11.61-16.31-19.9 14.43-11 29.68-21.21 41.89-34.78 5.6-1.77 8.98-6.97 12.61-11.23 4.16 4.84 8.3 9.69 12.42 14.57"
       stroke="#E5BC84"
       stroke-width=".0938"
       id="path179"
       style="fill:none;fill-opacity:0.65909094" />
    <path
       d="m995.43 681.32c3.57-1.59 6.4-4.32 9.31-6.85 5.77-3.56 9.9-9.0699 14.74-13.71 4.31 4.89 8.54 9.86 12.73 14.87-9.97 7.04-19.4 14.9-27.92 23.64-7.99 8.02-16.01 16.01-23.42 24.58-5.31-2.86-8.1-8.56-13.2-11.68-1.14-1.86-3.68-4.99-1.25-6.75 8.9-7.01 18.46-13.25 26.86-20.9"
       stroke="#E5BC84"
       stroke-width=".0938"
       id="path181"
       style="fill:none;fill-opacity:0.65909094" />
    <path
       d="m963.53 682.02c-5.52-2.72-11.82-4.73-17.9-2.62-3.53 0.86-6.74 2.69-9.62 4.86-0.76-0.08-2.3-0.24-3.06-0.32 6.16-6.19 13.12-11.52 19.77-17.16 4.13 5.02 8.59 9.77 12.48 14.99"
       stroke="#E9CCA5"
       stroke-width=".0938"
       id="path183"
       style="fill:none;fill-opacity:0.65909094" />
    <path
       d="m965.2 681.77c3.62 0.5 7.11 1.78 10.79 1.97 6.58 0.54 13.12-0.72 19.44-2.42-0.71 1.07-1.39 2.16-2.15 3.2-9.9 1.1-20.67 2.73-29.75-2.5 0.42-0.07 1.26-0.19 1.67-0.25z"
       stroke="#B5B5B5"
       stroke-width=".0938"
       id="path185"
       style="fill:none;fill-opacity:0.65909094" />
    <path
       d="m1579.5 748.57c15.14-12.14 27.51-27.34 42.35-39.84-0.17 12.15-1.61 24.24-2.34 36.36-4.2001 56.58-8.3301 113.17-12.56 169.75-10.13 6.09-22.76 5-33.5 1.24 1.48-49.68 3.55-99.35 5.23-149.03 0.2601-6.16 0.3602-12.33 0.8201-18.48z"
       stroke="#565656"
       stroke-width=".0938"
       id="path187"
       style="fill:none;fill-opacity:0.65909094" />
    <path
       d="m795.89 866.84c-0.36 51.05-0.05 102.11-0.15 153.16 0.01 74.66-0.02 149.33 0.01 223.99 0.24 3.38-4.17 4.0701-6.62 5.05-8.1 2.0399-16.37-0.54-24.02-3.12-0.38-52.97-0.06-105.95-0.16-158.92 0-82.31-0.02-164.64 0.01-246.94 0-0.84-0.29-1.55-0.72-2.2"
       stroke="#6B6B6B"
       stroke-width=".0938"
       id="path189"
       style="fill:none;fill-opacity:0.65909094" />
    <polygon
       points="835.78 855.18 351.64 424.75 344.98 418.83 327.45 422.04 313.06 424.68 318.02 429.22 326.76 437.23 354.9 463 357.21 465.11 480.52 578.03 517.93 612.29 518 612.35 531.57 624.78 554.81 646.07 555.88 647.05 657.76 740.35 677.6 758.52 764.24 837.86 795.89 866.84 836.2 903.76 836.18 901.29"
       stroke="#B5B5B5"
       stroke-width=".0938"
       id="polygon191"
       style="fill:none;fill-opacity:0.65909094" />
    <path
       d="m57.36 163.33l251.6 222.85 4.89 4.33c0.21 8.32 0.34 16.37 0.1 23.22v0.13c-0.15 4.11-0.42 7.78-0.89 10.82l-124.68-112.99-29.27-26.52-101.75-92.2v-29.64z"
       stroke="#B5B5B5"
       stroke-width=".0938"
       id="path193"
       style="fill:none;fill-opacity:0.65909094" />
    <polyline
       points="1861.6 515.66 1223.5 229.82 1086.1 168.28 794 37.43 57.36 163.33"
       stroke="#B5B5B5"
       stroke-miterlimit="10"
       id="polyline195"
       style="fill:none;fill-opacity:0.65909094" />
  </g>
</svg>
