<?xml version="1.0" encoding="UTF-8" standalone="no"?>
<svg
   viewBox="0 0 640 480"
   version="1.1"
   id="svg2078"
   sodipodi:docname="pingpong_ball.svg"
   inkscape:version="1.2.1 (9c6d41e4, 2022-07-14)"
   xmlns:inkscape="http://www.inkscape.org/namespaces/inkscape"
   xmlns:sodipodi="http://sodipodi.sourceforge.net/DTD/sodipodi-0.dtd"
   xmlns="http://www.w3.org/2000/svg"
   xmlns:svg="http://www.w3.org/2000/svg">
  <sodipodi:namedview
     id="namedview2080"
     pagecolor="#ffffff"
     bordercolor="#000000"
     borderopacity="0.25"
     inkscape:showpageshadow="2"
     inkscape:pageopacity="0.0"
     inkscape:pagecheckerboard="0"
     inkscape:deskcolor="#d1d1d1"
     showgrid="false"
     inkscape:zoom="0.49166667"
     inkscape:cx="242.0339"
     inkscape:cy="244.06779"
     inkscape:window-width="1570"
     inkscape:window-height="836"
     inkscape:window-x="148"
     inkscape:window-y="25"
     inkscape:window-maximized="0"
     inkscape:current-layer="svg2078" />
  <defs
     id="defs2050">
    <filter
       id="k"
       x="-0.034405057"
       y="-1.2084788"
       width="1.0688101"
       height="3.4169575"
       color-interpolation-filters="sRGB">
      <feGaussianBlur
         stdDeviation="6.43948"
         id="feGaussianBlur1998" />
    </filter>
    <linearGradient
       id="l">
      <stop
         stop-opacity="0"
         offset="0"
         id="stop2001" />
      <stop
         offset=".425"
         id="stop2003" />
      <stop
         stop-opacity="0"
         offset="1"
         id="stop2005" />
    </linearGradient>
    <radialGradient
       id="r"
       cx="106.15"
       cy="491.64"
       r="72.72"
       gradientTransform="matrix(1,0,0,0.16092,60.983051,327.78424)"
       gradientUnits="userSpaceOnUse">
      <stop
         offset="0"
         id="stop2008" />
      <stop
         stop-opacity="0"
         offset="1"
         id="stop2010" />
    </radialGradient>
    <linearGradient
       id="m"
       x1="16.02"
       x2="15.841"
       gradientTransform="matrix(.49835 -.065884 .065884 .49835 -840.33 857.76)">
      <stop
         stop-color="#deaa87"
         offset="0"
         id="stop2013" />
      <stop
         stop-color="#c87137"
         offset="1"
         id="stop2015" />
    </linearGradient>
    <radialGradient
       id="s"
       cx="46.01"
       cy="310.12"
       r="345.24"
       gradientTransform="matrix(.49835 -.065884 .063882 .4832 39.937 636.74)"
       gradientUnits="userSpaceOnUse">
      <stop
         stop-color="#ff2a2a"
         offset="0"
         id="stop2018" />
      <stop
         stop-color="#be0d00"
         offset="1"
         id="stop2020" />
    </radialGradient>
    <linearGradient
       id="n"
       x1="65.56"
       x2="64.35"
       gradientTransform="matrix(.49835 -.065884 .065884 .49835 -839.63 859.19)">
      <stop
         stop-color="#d89a71"
         offset="0"
         id="stop2023" />
      <stop
         stop-color="#e9c6af"
         offset="1"
         id="stop2025" />
    </linearGradient>
    <linearGradient
       id="o"
       x1="12.467"
       x2="12.931"
       gradientTransform="matrix(.49835 -.065884 .065884 .49835 -840.33 857.76)">
      <stop
         stop-color="#d38d5f"
         offset="0"
         id="stop2028" />
      <stop
         stop-color="#f4e3d7"
         offset=".5"
         id="stop2030" />
      <stop
         stop-color="#d38d5f"
         offset="1"
         id="stop2032" />
    </linearGradient>
    <radialGradient
       id="t"
       cx="596.8"
       cy="-242.24"
       r="63.52"
       gradientUnits="userSpaceOnUse"
       gradientTransform="translate(60.983051,-84.745763)">
      <stop
         stop-color="#f9f9f9"
         offset="0"
         id="stop2035" />
      <stop
         stop-color="#ccc"
         offset="1"
         id="stop2037" />
    </radialGradient>
    <linearGradient
       id="p"
       x1="283.82951"
       x2="227.72396"
       gradientTransform="matrix(1.1517589,0,0,0.86823725,60.983051,-84.745763)"
       y1="359.02629"
       y2="359.02629"
       gradientUnits="userSpaceOnUse">
      <stop
         stop-color="#b3b3b3"
         offset="0"
         id="stop2040" />
      <stop
         stop-color="#b3b3b3"
         stop-opacity="0"
         offset="1"
         id="stop2042" />
    </linearGradient>
    <linearGradient
       id="q"
       x1="184.23884"
       x2="213.85423"
       gradientTransform="matrix(1.1517589,0,0,0.86823725,60.983051,-84.745763)"
       y1="331.87242"
       y2="331.87242"
       gradientUnits="userSpaceOnUse">
      <stop
         stop-color="#fff"
         offset="0"
         id="stop2045" />
      <stop
         stop-color="#fff"
         stop-opacity="0"
         offset="1"
         id="stop2047" />
    </linearGradient>
  </defs>
  <path
     d="m 354.44305,247.63424 c 0,24.279 -19.682,43.961 -43.961,43.961 -24.279,0 -43.961,-19.682 -43.961,-43.961 0,-24.279 19.682,-43.961 43.961,-43.961 24.279,0 43.961,19.682 43.961,43.961 z"
     fill="url(#t)"
     id="path2064"
     style="fill:url(#t)" />
  <path
     d="m 349.29305,226.97424 c 1.4691,4.3877 2.301,9.0731 2.301,13.955 0,24.279 -19.709,43.957 -43.987,43.957 -16.849,0 -31.468,-9.4818 -38.848,-23.398 5.8043,17.489 22.279,30.092 41.716,30.092 24.279,0 43.987,-19.679 43.987,-43.957 0,-7.4671 -1.8851,-14.49 -5.1697,-20.649 z"
     fill="url(#p)"
     id="path2066"
     style="fill:url(#p)" />
  <path
     d="m 271.92305,268.00424 c -1.4691,-4.3877 -2.301,-9.0731 -2.301,-13.955 0,-24.279 19.709,-43.957 43.987,-43.957 16.849,0 31.468,9.4819 38.848,23.398 -5.8043,-17.489 -22.279,-30.092 -41.716,-30.092 -24.279,0 -43.987,19.679 -43.987,43.957 0,7.4671 1.8851,14.49 5.1697,20.649 z"
     fill="url(#q)"
     id="path2068"
     style="fill:url(#q)" />
  <g
     opacity="0.5"
     id="g2076"
     transform="translate(60.983051,-84.745763)">
    <path
       d="m 240.77,319.34 -2.9279,-0.33484 -1.5115,2.6176 -0.58635,-2.8881 -2.9565,-0.62869 2.5655,-1.4501 -0.3157,-3.0061 2.1719,1.9919 2.7614,-1.2292 -1.2232,2.6811 2.0223,2.2464 z"
       opacity="0.3"
       id="path2070" />
    <path
       d="m 251.36,317.45 2.6331,-1.3235 2.3211,1.9361 -0.4451,-2.9132 2.5586,-1.6092 -2.9081,-0.47693 -0.73982,-2.9307 -1.3522,2.6184 -3.0158,-0.202 2.0724,2.0952 -1.124,2.8058 z"
       opacity="0.3"
       id="path2072" />
    <path
       d="m 243.68,318.47 2.0533,-2.114 2.8277,1.0676 -1.376,-2.606 1.8892,-2.3595 -2.9037,0.50339 -1.6602,-2.5258 -0.41856,2.9171 -2.9152,0.79843 2.645,1.2995 -0.14154,3.0193 z"
       opacity="0.3"
       id="path2074" />
  </g>
</svg>
